<?xml version="1.0" encoding="utf-8" standalone="no"?>
<!DOCTYPE svg PUBLIC "-//W3C//DTD SVG 1.1//EN"
  "http://www.w3.org/Graphics/SVG/1.1/DTD/svg11.dtd">
<svg xmlns:xlink="http://www.w3.org/1999/xlink" width="640.713437pt" height="243.751937pt" viewBox="0 0 640.713437 243.751937" xmlns="http://www.w3.org/2000/svg" version="1.1">
 <metadata>
  <rdf:RDF xmlns:dc="http://purl.org/dc/elements/1.1/" xmlns:cc="http://creativecommons.org/ns#" xmlns:rdf="http://www.w3.org/1999/02/22-rdf-syntax-ns#">
   <cc:Work>
    <dc:type rdf:resource="http://purl.org/dc/dcmitype/StillImage"/>
    <dc:date>2025-12-22T16:32:42.299644</dc:date>
    <dc:format>image/svg+xml</dc:format>
    <dc:creator>
     <cc:Agent>
      <dc:title>Matplotlib v3.5.3, https://matplotlib.org/</dc:title>
     </cc:Agent>
    </dc:creator>
   </cc:Work>
  </rdf:RDF>
 </metadata>
 <defs>
  <style type="text/css">*{stroke-linejoin: round; stroke-linecap: butt}</style>
 </defs>
 <g id="figure_1">
  <g id="patch_1">
   <path d="M 0 243.751937 
L 640.713437 243.751937 
L 640.713437 0 
L 0 0 
z
" style="fill: #ffffff"/>
  </g>
  <g id="axes_1">
   <g id="patch_2">
    <path d="M 87.023438 208.727875 
L 633.513437 208.727875 
L 633.513437 33.875875 
L 87.023438 33.875875 
z
" style="fill: #ffffff"/>
   </g>
   <g id="patch_3">
    <path d="M 87.023438 87.648951 
L 87.023438 41.823693 
L 633.513437 41.823693 
L 633.513437 87.648951 
z
" clip-path="url(#p6f276aed54)" style="fill: #fff3cd; opacity: 0.4; stroke: #fff3cd; stroke-linejoin: miter"/>
   </g>
   <g id="PolyCollection_1">
    <defs>
     <path id="mb18a468ef3" d="M 156.118645 -53.003686 
L 156.118645 -52.988625 
L 160.379801 -52.988455 
L 164.640956 -52.990449 
L 168.902111 -52.991804 
L 173.163266 -52.990792 
L 177.424421 -52.987488 
L 181.685576 -52.981327 
L 185.946732 -52.972038 
L 190.207887 -52.961622 
L 194.469042 -52.952546 
L 198.730197 -52.9461 
L 202.991352 -52.940146 
L 207.252508 -52.929045 
L 211.513663 -52.908812 
L 215.774818 -52.877368 
L 220.035973 -52.833093 
L 224.297128 -52.780564 
L 228.558284 -52.728498 
L 232.819439 -52.673703 
L 237.080594 -52.597778 
L 241.341749 -52.490403 
L 245.602904 -52.363533 
L 249.864059 -52.223679 
L 254.125215 -52.057118 
L 258.38637 -51.861321 
L 262.647525 -51.643083 
L 266.90868 -51.397061 
L 271.169835 -51.105172 
L 275.430991 -50.747047 
L 279.692146 -50.339292 
L 283.953301 -49.911526 
L 288.214456 -49.441892 
L 292.475611 -48.900686 
L 296.736767 -48.30131 
L 300.997922 -47.674289 
L 305.259077 -47.040485 
L 309.520232 -46.400335 
L 313.781387 -45.776474 
L 318.042542 -45.231934 
L 322.303698 -44.77015 
L 326.564853 -44.334847 
L 330.826008 -43.929426 
L 335.087163 -43.596099 
L 339.348318 -43.331464 
L 343.609474 -43.107943 
L 347.870629 -42.971881 
L 352.131784 -43.0248 
L 356.392939 -43.235385 
L 360.654094 -43.485286 
L 364.915249 -43.806037 
L 369.176405 -44.296768 
L 373.43756 -44.92319 
L 377.698715 -45.586395 
L 381.95987 -46.237667 
L 386.221025 -46.839101 
L 390.482181 -47.362402 
L 394.743336 -47.841859 
L 399.004491 -48.324558 
L 403.265646 -48.823358 
L 407.526801 -49.338358 
L 411.787957 -49.845501 
L 416.049112 -50.302484 
L 420.310267 -50.704187 
L 424.571422 -51.078331 
L 428.832577 -51.430159 
L 433.093732 -51.74092 
L 437.354888 -51.998338 
L 441.616043 -52.195537 
L 445.877198 -52.337572 
L 450.138353 -52.449203 
L 454.399508 -52.546286 
L 458.660664 -52.627795 
L 462.921819 -52.698741 
L 467.182974 -52.765629 
L 471.444129 -52.822537 
L 475.705284 -52.863205 
L 479.96644 -52.890118 
L 484.227595 -52.908921 
L 488.48875 -52.92479 
L 492.749905 -52.941143 
L 497.01106 -52.957591 
L 501.272215 -52.970406 
L 505.533371 -52.978159 
L 509.794526 -52.982957 
L 514.055681 -52.985559 
L 518.316836 -52.986486 
L 522.577991 -52.988235 
L 526.839147 -52.991511 
L 531.100302 -52.994366 
L 535.361457 -52.995714 
L 539.622612 -52.996087 
L 543.883767 -52.996149 
L 548.144923 -52.996155 
L 552.406078 -52.996155 
L 556.667233 -52.996145 
L 560.928388 -52.996062 
L 565.189543 -52.995659 
L 569.450698 -52.994524 
L 573.711854 -52.992825 
L 577.973009 -52.99193 
L 577.973009 -53.000382 
L 577.973009 -53.000382 
L 573.711854 -52.999487 
L 569.450698 -52.997787 
L 565.189543 -52.996652 
L 560.928388 -52.99625 
L 556.667233 -52.996167 
L 552.406078 -52.996157 
L 548.144923 -52.996156 
L 543.883767 -52.996163 
L 539.622612 -52.996225 
L 535.361457 -52.996598 
L 531.100302 -52.997945 
L 526.839147 -53.000801 
L 522.577991 -53.004077 
L 518.316836 -53.005825 
L 514.055681 -53.006752 
L 509.794526 -53.009355 
L 505.533371 -53.014153 
L 501.272215 -53.021906 
L 497.01106 -53.03472 
L 492.749905 -53.051169 
L 488.48875 -53.067522 
L 484.227595 -53.083391 
L 479.96644 -53.102194 
L 475.705284 -53.129107 
L 471.444129 -53.169775 
L 467.182974 -53.226683 
L 462.921819 -53.293571 
L 458.660664 -53.364517 
L 454.399508 -53.446026 
L 450.138353 -53.543109 
L 445.877198 -53.65474 
L 441.616043 -53.796775 
L 437.354888 -53.993974 
L 433.093732 -54.251391 
L 428.832577 -54.562153 
L 424.571422 -54.91398 
L 420.310267 -55.288125 
L 416.049112 -55.689827 
L 411.787957 -56.146811 
L 407.526801 -56.653953 
L 403.265646 -57.168954 
L 399.004491 -57.667753 
L 394.743336 -58.150453 
L 390.482181 -58.62991 
L 386.221025 -59.153211 
L 381.95987 -59.754645 
L 377.698715 -60.405917 
L 373.43756 -61.069121 
L 369.176405 -61.695543 
L 364.915249 -62.186275 
L 360.654094 -62.507025 
L 356.392939 -62.756927 
L 352.131784 -62.967512 
L 347.870629 -63.020431 
L 343.609474 -62.884369 
L 339.348318 -62.660847 
L 335.087163 -62.396213 
L 330.826008 -62.062886 
L 326.564853 -61.657465 
L 322.303698 -61.222161 
L 318.042542 -60.760377 
L 313.781387 -60.215838 
L 309.520232 -59.591977 
L 305.259077 -58.951827 
L 300.997922 -58.318023 
L 296.736767 -57.691002 
L 292.475611 -57.091626 
L 288.214456 -56.55042 
L 283.953301 -56.080786 
L 279.692146 -55.65302 
L 275.430991 -55.245264 
L 271.169835 -54.887139 
L 266.90868 -54.595251 
L 262.647525 -54.349228 
L 258.38637 -54.130991 
L 254.125215 -53.935194 
L 249.864059 -53.768633 
L 245.602904 -53.628778 
L 241.341749 -53.501908 
L 237.080594 -53.394534 
L 232.819439 -53.318609 
L 228.558284 -53.263814 
L 224.297128 -53.211747 
L 220.035973 -53.159219 
L 215.774818 -53.114944 
L 211.513663 -53.0835 
L 207.252508 -53.063266 
L 202.991352 -53.052166 
L 198.730197 -53.046212 
L 194.469042 -53.039765 
L 190.207887 -53.03069 
L 185.946732 -53.020273 
L 181.685576 -53.010984 
L 177.424421 -53.004824 
L 173.163266 -53.00152 
L 168.902111 -53.000508 
L 164.640956 -53.001862 
L 160.379801 -53.003857 
L 156.118645 -53.003686 
z
" style="stroke: #7ad151; stroke-opacity: 0.55; stroke-width: 0.8"/>
    </defs>
    <g clip-path="url(#p6f276aed54)">
     <use xlink:href="#mb18a468ef3" x="0" y="243.751937" style="fill: #7ad151; fill-opacity: 0.55; stroke: #7ad151; stroke-opacity: 0.55; stroke-width: 0.8"/>
    </g>
   </g>
   <g id="PolyCollection_2">
    <defs>
     <path id="m17bbf7ec55" d="M 169.98544 -110.290941 
L 169.98544 -110.264515 
L 173.883168 -110.261452 
L 177.780897 -110.261369 
L 181.678625 -110.261231 
L 185.576353 -110.256794 
L 189.474082 -110.248392 
L 193.37181 -110.24069 
L 197.269539 -110.234952 
L 201.167267 -110.225716 
L 205.064995 -110.208595 
L 208.962724 -110.186597 
L 212.860452 -110.164474 
L 216.758181 -110.142116 
L 220.655909 -110.115333 
L 224.553637 -110.077552 
L 228.451366 -110.023198 
L 232.349094 -109.952375 
L 236.246823 -109.866604 
L 240.144551 -109.764089 
L 244.042279 -109.647326 
L 247.940008 -109.526577 
L 251.837736 -109.407637 
L 255.735464 -109.281909 
L 259.633193 -109.131119 
L 263.530921 -108.941027 
L 267.42865 -108.710869 
L 271.326378 -108.444943 
L 275.224106 -108.135201 
L 279.121835 -107.763321 
L 283.019563 -107.327359 
L 286.917292 -106.856648 
L 290.81502 -106.386351 
L 294.712748 -105.918859 
L 298.610477 -105.432645 
L 302.508205 -104.930119 
L 306.405934 -104.423796 
L 310.303662 -103.883385 
L 314.20139 -103.275412 
L 318.099119 -102.631563 
L 321.996847 -102.024173 
L 325.894575 -101.519427 
L 329.792304 -101.15922 
L 333.690032 -100.932206 
L 337.587761 -100.768901 
L 341.485489 -100.595779 
L 345.383217 -100.406163 
L 349.280946 -100.270496 
L 353.178674 -100.253453 
L 357.076403 -100.343214 
L 360.974131 -100.486609 
L 364.871859 -100.663482 
L 368.769588 -100.910766 
L 372.667316 -101.277408 
L 376.565045 -101.760571 
L 380.462773 -102.300315 
L 384.360501 -102.829739 
L 388.25823 -103.320666 
L 392.155958 -103.789926 
L 396.053687 -104.268476 
L 399.951415 -104.774117 
L 403.849143 -105.306453 
L 407.746872 -105.839183 
L 411.6446 -106.326628 
L 415.542328 -106.741648 
L 419.440057 -107.101906 
L 423.337785 -107.450714 
L 427.235514 -107.809418 
L 431.133242 -108.158868 
L 435.03097 -108.47678 
L 438.928699 -108.765649 
L 442.826427 -109.028545 
L 446.724156 -109.250187 
L 450.621884 -109.418049 
L 454.519612 -109.543233 
L 458.417341 -109.649803 
L 462.315069 -109.751242 
L 466.212798 -109.845019 
L 470.110526 -109.923306 
L 474.008254 -109.98311 
L 477.905983 -110.030675 
L 481.803711 -110.076187 
L 485.701439 -110.122001 
L 489.599168 -110.161458 
L 493.496896 -110.190585 
L 497.394625 -110.212758 
L 501.292353 -110.230782 
L 505.190081 -110.242837 
L 509.08781 -110.248192 
L 512.985538 -110.250588 
L 516.883267 -110.254255 
L 520.780995 -110.260255 
L 524.678723 -110.266815 
L 528.576452 -110.271292 
L 532.47418 -110.272331 
L 536.371909 -110.270963 
L 540.269637 -110.269562 
L 544.167365 -110.26963 
L 548.065094 -110.270705 
L 551.962822 -110.271668 
L 555.860551 -110.272525 
L 555.860551 -110.282932 
L 555.860551 -110.282932 
L 551.962822 -110.283788 
L 548.065094 -110.284752 
L 544.167365 -110.285826 
L 540.269637 -110.285895 
L 536.371909 -110.284494 
L 532.47418 -110.283125 
L 528.576452 -110.284164 
L 524.678723 -110.288641 
L 520.780995 -110.295202 
L 516.883267 -110.301202 
L 512.985538 -110.304869 
L 509.08781 -110.307265 
L 505.190081 -110.31262 
L 501.292353 -110.324675 
L 497.394625 -110.342699 
L 493.496896 -110.364872 
L 489.599168 -110.393999 
L 485.701439 -110.433456 
L 481.803711 -110.47927 
L 477.905983 -110.524781 
L 474.008254 -110.572346 
L 470.110526 -110.632151 
L 466.212798 -110.710438 
L 462.315069 -110.804215 
L 458.417341 -110.905653 
L 454.519612 -111.012224 
L 450.621884 -111.137407 
L 446.724156 -111.30527 
L 442.826427 -111.526911 
L 438.928699 -111.789807 
L 435.03097 -112.078677 
L 431.133242 -112.396589 
L 427.235514 -112.746039 
L 423.337785 -113.104742 
L 419.440057 -113.453551 
L 415.542328 -113.813808 
L 411.6446 -114.228829 
L 407.746872 -114.716274 
L 403.849143 -115.249004 
L 399.951415 -115.78134 
L 396.053687 -116.286981 
L 392.155958 -116.765531 
L 388.25823 -117.234791 
L 384.360501 -117.725718 
L 380.462773 -118.255142 
L 376.565045 -118.794886 
L 372.667316 -119.278049 
L 368.769588 -119.644691 
L 364.871859 -119.891975 
L 360.974131 -120.068848 
L 357.076403 -120.212243 
L 353.178674 -120.302004 
L 349.280946 -120.284961 
L 345.383217 -120.149294 
L 341.485489 -119.959677 
L 337.587761 -119.786556 
L 333.690032 -119.623251 
L 329.792304 -119.396237 
L 325.894575 -119.03603 
L 321.996847 -118.531284 
L 318.099119 -117.923894 
L 314.20139 -117.280044 
L 310.303662 -116.672072 
L 306.405934 -116.131661 
L 302.508205 -115.625338 
L 298.610477 -115.122811 
L 294.712748 -114.636597 
L 290.81502 -114.169106 
L 286.917292 -113.698809 
L 283.019563 -113.228098 
L 279.121835 -112.792136 
L 275.224106 -112.420256 
L 271.326378 -112.110513 
L 267.42865 -111.844588 
L 263.530921 -111.61443 
L 259.633193 -111.424338 
L 255.735464 -111.273548 
L 251.837736 -111.14782 
L 247.940008 -111.02888 
L 244.042279 -110.90813 
L 240.144551 -110.791368 
L 236.246823 -110.688853 
L 232.349094 -110.603082 
L 228.451366 -110.532259 
L 224.553637 -110.477904 
L 220.655909 -110.440124 
L 216.758181 -110.413341 
L 212.860452 -110.390983 
L 208.962724 -110.36886 
L 205.064995 -110.346862 
L 201.167267 -110.329741 
L 197.269539 -110.320505 
L 193.37181 -110.314767 
L 189.474082 -110.307064 
L 185.576353 -110.298663 
L 181.678625 -110.294226 
L 177.780897 -110.294087 
L 173.883168 -110.294005 
L 169.98544 -110.290941 
z
" style="stroke: #7ad151; stroke-opacity: 0.55; stroke-width: 0.8"/>
    </defs>
    <g clip-path="url(#p6f276aed54)">
     <use xlink:href="#m17bbf7ec55" x="0" y="243.751937" style="fill: #7ad151; fill-opacity: 0.55; stroke: #7ad151; stroke-opacity: 0.55; stroke-width: 0.8"/>
    </g>
   </g>
   <g id="PolyCollection_3">
    <defs>
     <path id="ma435509aa8" d="M 111.863892 -167.568523 
L 111.863892 -167.550078 
L 116.882166 -167.547869 
L 121.900439 -167.545244 
L 126.918713 -167.54173 
L 131.936987 -167.53877 
L 136.95526 -167.532246 
L 141.973534 -167.518009 
L 146.991808 -167.502361 
L 152.010081 -167.49243 
L 157.028355 -167.483821 
L 162.046629 -167.468696 
L 167.064902 -167.442846 
L 172.083176 -167.405191 
L 177.101449 -167.359227 
L 182.119723 -167.306385 
L 187.137997 -167.234628 
L 192.15627 -167.133037 
L 197.174544 -167.002455 
L 202.192818 -166.836019 
L 207.211091 -166.632821 
L 212.229365 -166.407721 
L 217.247639 -166.155128 
L 222.265912 -165.854374 
L 227.284186 -165.489493 
L 232.30246 -165.04993 
L 237.320733 -164.554956 
L 242.339007 -164.029856 
L 247.35728 -163.458874 
L 252.375554 -162.81996 
L 257.393828 -162.123565 
L 262.412101 -161.392015 
L 267.430375 -160.665944 
L 272.448649 -160.001012 
L 277.466922 -159.399852 
L 282.485196 -158.80516 
L 287.50347 -158.236094 
L 292.521743 -157.81505 
L 297.540017 -157.596367 
L 302.558291 -157.535026 
L 307.576564 -157.58725 
L 312.594838 -157.72902 
L 317.613112 -157.941366 
L 322.631385 -158.220584 
L 327.649659 -158.644524 
L 332.667932 -159.258639 
L 337.686206 -159.926275 
L 342.70448 -160.547539 
L 347.722753 -161.209122 
L 352.741027 -161.940799 
L 357.759301 -162.607898 
L 362.777574 -163.173002 
L 367.795848 -163.747461 
L 372.814122 -164.324044 
L 377.832395 -164.813564 
L 382.850669 -165.223299 
L 387.868943 -165.587026 
L 392.887216 -165.922678 
L 397.90549 -166.238749 
L 402.923763 -166.51131 
L 407.942037 -166.727511 
L 412.960311 -166.892157 
L 417.978584 -167.005596 
L 422.996858 -167.079523 
L 428.015132 -167.139204 
L 433.033405 -167.210671 
L 438.051679 -167.297623 
L 443.069953 -167.376341 
L 448.088226 -167.422443 
L 453.1065 -167.438466 
L 458.124774 -167.446903 
L 463.143047 -167.459866 
L 468.161321 -167.474793 
L 473.179595 -167.489411 
L 478.197868 -167.5051 
L 483.216142 -167.522448 
L 488.234415 -167.537174 
L 493.252689 -167.543272 
L 498.270963 -167.543105 
L 503.289236 -167.543025 
L 508.30751 -167.544208 
L 513.325784 -167.546999 
L 518.344057 -167.551949 
L 523.362331 -167.556419 
L 528.380605 -167.558172 
L 533.398878 -167.557474 
L 538.417152 -167.55573 
L 543.435426 -167.555148 
L 548.453699 -167.556549 
L 553.471973 -167.558264 
L 558.490246 -167.559079 
L 563.50852 -167.559274 
L 568.526794 -167.559299 
L 573.545067 -167.559301 
L 578.563341 -167.559301 
L 583.581615 -167.559297 
L 588.599888 -167.559255 
L 593.618162 -167.558968 
L 598.636436 -167.557938 
L 603.654709 -167.556123 
L 608.672983 -167.555086 
L 608.672983 -167.563515 
L 608.672983 -167.563515 
L 603.654709 -167.562479 
L 598.636436 -167.560664 
L 593.618162 -167.559633 
L 588.599888 -167.559347 
L 583.581615 -167.559304 
L 578.563341 -167.559301 
L 573.545067 -167.559301 
L 568.526794 -167.559303 
L 563.50852 -167.559328 
L 558.490246 -167.559523 
L 553.471973 -167.560338 
L 548.453699 -167.562053 
L 543.435426 -167.563454 
L 538.417152 -167.562871 
L 533.398878 -167.561128 
L 528.380605 -167.56043 
L 523.362331 -167.562183 
L 518.344057 -167.566652 
L 513.325784 -167.571603 
L 508.30751 -167.574394 
L 503.289236 -167.575576 
L 498.270963 -167.575496 
L 493.252689 -167.575329 
L 488.234415 -167.581428 
L 483.216142 -167.596154 
L 478.197868 -167.613502 
L 473.179595 -167.62919 
L 468.161321 -167.643808 
L 463.143047 -167.658736 
L 458.124774 -167.671699 
L 453.1065 -167.680136 
L 448.088226 -167.696159 
L 443.069953 -167.742261 
L 438.051679 -167.820979 
L 433.033405 -167.907931 
L 428.015132 -167.979398 
L 422.996858 -168.039079 
L 417.978584 -168.113006 
L 412.960311 -168.226444 
L 407.942037 -168.39109 
L 402.923763 -168.607292 
L 397.90549 -168.879853 
L 392.887216 -169.195924 
L 387.868943 -169.531575 
L 382.850669 -169.895302 
L 377.832395 -170.305038 
L 372.814122 -170.794558 
L 367.795848 -171.371141 
L 362.777574 -171.9456 
L 357.759301 -172.510703 
L 352.741027 -173.177802 
L 347.722753 -173.909479 
L 342.70448 -174.571063 
L 337.686206 -175.192326 
L 332.667932 -175.859962 
L 327.649659 -176.474078 
L 322.631385 -176.898017 
L 317.613112 -177.177235 
L 312.594838 -177.389581 
L 307.576564 -177.531351 
L 302.558291 -177.583576 
L 297.540017 -177.522235 
L 292.521743 -177.303552 
L 287.50347 -176.882507 
L 282.485196 -176.313441 
L 277.466922 -175.71875 
L 272.448649 -175.117589 
L 267.430375 -174.452657 
L 262.412101 -173.726587 
L 257.393828 -172.995037 
L 252.375554 -172.298642 
L 247.35728 -171.659727 
L 242.339007 -171.088746 
L 237.320733 -170.563646 
L 232.30246 -170.068672 
L 227.284186 -169.629108 
L 222.265912 -169.264228 
L 217.247639 -168.963474 
L 212.229365 -168.710881 
L 207.211091 -168.485781 
L 202.192818 -168.282583 
L 197.174544 -168.116147 
L 192.15627 -167.985565 
L 187.137997 -167.883974 
L 182.119723 -167.812216 
L 177.101449 -167.759375 
L 172.083176 -167.713411 
L 167.064902 -167.675756 
L 162.046629 -167.649906 
L 157.028355 -167.63478 
L 152.010081 -167.626172 
L 146.991808 -167.616241 
L 141.973534 -167.600592 
L 136.95526 -167.586355 
L 131.936987 -167.579832 
L 126.918713 -167.576872 
L 121.900439 -167.573358 
L 116.882166 -167.570733 
L 111.863892 -167.568523 
z
" style="stroke: #7ad151; stroke-opacity: 0.55; stroke-width: 0.8"/>
    </defs>
    <g clip-path="url(#p6f276aed54)">
     <use xlink:href="#ma435509aa8" x="0" y="243.751937" style="fill: #7ad151; fill-opacity: 0.55; stroke: #7ad151; stroke-opacity: 0.55; stroke-width: 0.8"/>
    </g>
   </g>
   <g id="PolyCollection_4">
    <defs>
     <path id="md94632198f" d="M 277.438428 -75.913682 
L 277.438428 -75.903888 
L 279.223787 -75.903411 
L 281.009146 -75.903299 
L 282.794505 -75.903244 
L 284.579863 -75.902922 
L 286.365222 -75.901294 
L 288.150581 -75.897977 
L 289.93594 -75.894358 
L 291.721299 -75.891536 
L 293.506658 -75.887704 
L 295.292017 -75.878414 
L 297.077376 -75.860059 
L 298.862735 -75.834434 
L 300.648094 -75.809999 
L 302.433453 -75.795279 
L 304.218812 -75.789213 
L 306.004171 -75.782381 
L 307.78953 -75.767368 
L 309.574889 -75.741408 
L 311.360248 -75.702579 
L 313.145607 -75.650954 
L 314.930966 -75.589611 
L 316.716325 -75.519869 
L 318.501684 -75.440887 
L 320.287043 -75.354378 
L 322.072402 -75.261083 
L 323.857761 -75.157226 
L 325.64312 -75.039892 
L 327.428479 -74.901233 
L 329.213838 -74.718663 
L 330.999197 -74.475379 
L 332.784556 -74.183794 
L 334.569915 -73.860418 
L 336.355273 -73.487622 
L 338.140632 -73.034399 
L 339.925991 -72.515576 
L 341.71135 -71.992265 
L 343.496709 -71.500898 
L 345.282068 -71.024821 
L 347.067427 -70.545533 
L 348.852786 -70.063444 
L 350.638145 -69.568413 
L 352.423504 -69.04437 
L 354.208863 -68.485964 
L 355.994222 -67.891686 
L 357.779581 -67.28502 
L 359.56494 -66.736783 
L 361.350299 -66.315753 
L 363.135658 -66.03877 
L 364.921017 -65.89754 
L 366.706376 -65.88451 
L 368.491735 -65.967665 
L 370.277094 -66.097115 
L 372.062453 -66.26525 
L 373.847812 -66.515441 
L 375.633171 -66.875706 
L 377.41853 -67.312871 
L 379.203889 -67.762054 
L 380.989248 -68.196275 
L 382.774607 -68.648859 
L 384.559966 -69.160467 
L 386.345325 -69.72566 
L 388.130684 -70.296576 
L 389.916042 -70.827075 
L 391.701401 -71.307857 
L 393.48676 -71.759177 
L 395.272119 -72.195957 
L 397.057478 -72.620555 
L 398.842837 -73.038421 
L 400.628196 -73.437366 
L 402.413555 -73.778292 
L 404.198914 -74.047787 
L 405.984273 -74.282044 
L 407.769632 -74.516097 
L 409.554991 -74.745465 
L 411.34035 -74.947743 
L 413.125709 -75.112388 
L 414.911068 -75.24096 
L 416.696427 -75.338565 
L 418.481786 -75.41431 
L 420.267145 -75.480194 
L 422.052504 -75.543704 
L 423.837863 -75.604483 
L 425.623222 -75.659069 
L 427.408581 -75.705532 
L 429.19394 -75.743207 
L 430.979299 -75.772077 
L 432.764658 -75.794087 
L 434.550017 -75.813169 
L 436.335376 -75.83206 
L 438.120735 -75.850106 
L 439.906094 -75.865334 
L 441.691452 -75.877234 
L 443.476811 -75.886685 
L 445.26217 -75.894247 
L 447.047529 -75.899821 
L 448.832888 -75.903325 
L 450.618247 -75.904758 
L 452.403606 -75.904645 
L 454.188965 -75.904455 
L 454.188965 -75.913115 
L 454.188965 -75.913115 
L 452.403606 -75.912924 
L 450.618247 -75.912811 
L 448.832888 -75.914245 
L 447.047529 -75.917749 
L 445.26217 -75.923323 
L 443.476811 -75.930885 
L 441.691452 -75.940335 
L 439.906094 -75.952236 
L 438.120735 -75.967464 
L 436.335376 -75.985509 
L 434.550017 -76.0044 
L 432.764658 -76.023482 
L 430.979299 -76.045493 
L 429.19394 -76.074362 
L 427.408581 -76.112037 
L 425.623222 -76.1585 
L 423.837863 -76.213086 
L 422.052504 -76.273865 
L 420.267145 -76.337376 
L 418.481786 -76.403259 
L 416.696427 -76.479004 
L 414.911068 -76.57661 
L 413.125709 -76.705182 
L 411.34035 -76.869827 
L 409.554991 -77.072105 
L 407.769632 -77.301473 
L 405.984273 -77.535526 
L 404.198914 -77.769782 
L 402.413555 -78.039278 
L 400.628196 -78.380203 
L 398.842837 -78.779149 
L 397.057478 -79.197014 
L 395.272119 -79.621612 
L 393.48676 -80.058392 
L 391.701401 -80.509713 
L 389.916042 -80.990495 
L 388.130684 -81.520994 
L 386.345325 -82.091909 
L 384.559966 -82.657103 
L 382.774607 -83.168711 
L 380.989248 -83.621294 
L 379.203889 -84.055515 
L 377.41853 -84.504699 
L 375.633171 -84.941864 
L 373.847812 -85.302128 
L 372.062453 -85.55232 
L 370.277094 -85.720454 
L 368.491735 -85.849905 
L 366.706376 -85.93306 
L 364.921017 -85.92003 
L 363.135658 -85.7788 
L 361.350299 -85.501817 
L 359.56494 -85.080787 
L 357.779581 -84.53255 
L 355.994222 -83.925884 
L 354.208863 -83.331606 
L 352.423504 -82.7732 
L 350.638145 -82.249157 
L 348.852786 -81.754126 
L 347.067427 -81.272037 
L 345.282068 -80.792748 
L 343.496709 -80.316671 
L 341.71135 -79.825304 
L 339.925991 -79.301994 
L 338.140632 -78.783171 
L 336.355273 -78.329948 
L 334.569915 -77.957152 
L 332.784556 -77.633775 
L 330.999197 -77.342191 
L 329.213838 -77.098907 
L 327.428479 -76.916337 
L 325.64312 -76.777678 
L 323.857761 -76.660344 
L 322.072402 -76.556486 
L 320.287043 -76.463191 
L 318.501684 -76.376683 
L 316.716325 -76.297701 
L 314.930966 -76.227959 
L 313.145607 -76.166616 
L 311.360248 -76.114991 
L 309.574889 -76.076162 
L 307.78953 -76.050202 
L 306.004171 -76.035189 
L 304.218812 -76.028357 
L 302.433453 -76.02229 
L 300.648094 -76.007571 
L 298.862735 -75.983136 
L 297.077376 -75.957511 
L 295.292017 -75.939155 
L 293.506658 -75.929866 
L 291.721299 -75.926034 
L 289.93594 -75.923211 
L 288.150581 -75.919593 
L 286.365222 -75.916276 
L 284.579863 -75.914648 
L 282.794505 -75.914326 
L 281.009146 -75.914271 
L 279.223787 -75.914159 
L 277.438428 -75.913682 
z
" style="stroke: #414487; stroke-opacity: 0.55; stroke-width: 0.8"/>
    </defs>
    <g clip-path="url(#p6f276aed54)">
     <use xlink:href="#md94632198f" x="0" y="243.751937" style="fill: #414487; fill-opacity: 0.55; stroke: #414487; stroke-opacity: 0.55; stroke-width: 0.8"/>
    </g>
   </g>
   <g id="PolyCollection_5">
    <defs>
     <path id="m370340242b" d="M 289.049097 -133.205383 
L 289.049097 -133.175331 
L 291.046764 -133.16878 
L 293.044431 -133.166091 
L 295.042098 -133.16696 
L 297.039765 -133.166283 
L 299.037431 -133.158202 
L 301.035098 -133.142109 
L 303.032765 -133.124171 
L 305.030432 -133.110168 
L 307.028099 -133.097281 
L 309.025766 -133.077108 
L 311.023432 -133.046026 
L 313.021099 -133.004424 
L 315.018766 -132.946922 
L 317.016433 -132.86719 
L 319.0141 -132.774247 
L 321.011767 -132.688854 
L 323.009433 -132.614278 
L 325.0071 -132.521232 
L 327.004767 -132.375789 
L 329.002434 -132.177857 
L 331.000101 -131.956001 
L 332.997768 -131.722094 
L 334.995435 -131.454641 
L 336.993101 -131.136312 
L 338.990768 -130.770817 
L 340.988435 -130.357656 
L 342.986102 -129.905495 
L 344.983769 -129.454327 
L 346.981436 -129.020894 
L 348.979102 -128.556404 
L 350.976769 -128.007127 
L 352.974436 -127.386528 
L 354.972103 -126.7572 
L 356.96977 -126.166454 
L 358.967437 -125.624472 
L 360.965103 -125.118646 
L 362.96277 -124.642955 
L 364.960437 -124.230294 
L 366.958104 -123.920051 
L 368.955771 -123.677223 
L 370.953438 -123.43399 
L 372.951105 -123.227363 
L 374.948771 -123.166082 
L 376.946438 -123.277041 
L 378.944105 -123.496275 
L 380.941772 -123.780681 
L 382.939439 -124.157537 
L 384.937106 -124.642012 
L 386.934772 -125.16518 
L 388.932439 -125.653284 
L 390.930106 -126.101092 
L 392.927773 -126.52717 
L 394.92544 -126.958633 
L 396.923107 -127.458332 
L 398.920774 -128.054441 
L 400.91844 -128.667068 
L 402.916107 -129.198185 
L 404.913774 -129.639147 
L 406.911441 -130.040325 
L 408.909108 -130.435778 
L 410.906775 -130.815197 
L 412.904441 -131.15304 
L 414.902108 -131.452857 
L 416.899775 -131.737657 
L 418.897442 -132.007659 
L 420.895109 -132.236564 
L 422.892776 -132.403744 
L 424.890442 -132.515142 
L 426.888109 -132.599318 
L 428.885776 -132.690881 
L 430.883443 -132.805735 
L 432.88111 -132.925378 
L 434.878777 -133.01563 
L 436.876444 -133.061621 
L 438.87411 -133.07844 
L 440.871777 -133.091343 
L 442.869444 -133.111659 
L 444.867111 -133.134692 
L 446.864778 -133.153989 
L 448.862445 -133.167638 
L 450.860111 -133.175724 
L 452.857778 -133.179792 
L 454.855445 -133.18212 
L 456.853112 -133.183554 
L 458.850779 -133.183981 
L 460.848446 -133.183689 
L 462.846112 -133.182907 
L 464.843779 -133.182048 
L 466.841446 -133.182375 
L 468.839113 -133.184502 
L 470.83678 -133.187268 
L 472.834447 -133.18922 
L 474.832114 -133.190068 
L 476.82978 -133.190285 
L 478.827447 -133.190199 
L 480.825114 -133.189703 
L 482.822781 -133.18851 
L 484.820448 -133.186912 
L 486.818115 -133.186116 
L 486.818115 -133.194598 
L 486.818115 -133.194598 
L 484.820448 -133.193803 
L 482.822781 -133.192205 
L 480.825114 -133.191012 
L 478.827447 -133.190516 
L 476.82978 -133.19043 
L 474.832114 -133.190647 
L 472.834447 -133.191495 
L 470.83678 -133.193447 
L 468.839113 -133.196213 
L 466.841446 -133.198339 
L 464.843779 -133.198666 
L 462.846112 -133.197808 
L 460.848446 -133.197026 
L 458.850779 -133.196734 
L 456.853112 -133.19716 
L 454.855445 -133.198595 
L 452.857778 -133.200923 
L 450.860111 -133.20499 
L 448.862445 -133.213077 
L 446.864778 -133.226725 
L 444.867111 -133.246023 
L 442.869444 -133.269056 
L 440.871777 -133.289372 
L 438.87411 -133.302275 
L 436.876444 -133.319094 
L 434.878777 -133.365085 
L 432.88111 -133.455337 
L 430.883443 -133.57498 
L 428.885776 -133.689834 
L 426.888109 -133.781396 
L 424.890442 -133.865573 
L 422.892776 -133.976971 
L 420.895109 -134.144151 
L 418.897442 -134.373055 
L 416.899775 -134.643058 
L 414.902108 -134.927858 
L 412.904441 -135.227675 
L 410.906775 -135.565518 
L 408.909108 -135.944937 
L 406.911441 -136.340389 
L 404.913774 -136.741567 
L 402.916107 -137.18253 
L 400.91844 -137.713647 
L 398.920774 -138.326274 
L 396.923107 -138.922383 
L 394.92544 -139.422081 
L 392.927773 -139.853544 
L 390.930106 -140.279622 
L 388.932439 -140.727431 
L 386.934772 -141.215535 
L 384.937106 -141.738703 
L 382.939439 -142.223178 
L 380.941772 -142.600034 
L 378.944105 -142.88444 
L 376.946438 -143.103674 
L 374.948771 -143.214633 
L 372.951105 -143.153351 
L 370.953438 -142.946725 
L 368.955771 -142.703492 
L 366.958104 -142.460664 
L 364.960437 -142.15042 
L 362.96277 -141.73776 
L 360.965103 -141.262069 
L 358.967437 -140.756242 
L 356.96977 -140.214261 
L 354.972103 -139.623514 
L 352.974436 -138.994187 
L 350.976769 -138.373587 
L 348.979102 -137.824311 
L 346.981436 -137.359821 
L 344.983769 -136.926388 
L 342.986102 -136.47522 
L 340.988435 -136.023058 
L 338.990768 -135.609897 
L 336.993101 -135.244403 
L 334.995435 -134.926074 
L 332.997768 -134.658621 
L 331.000101 -134.424713 
L 329.002434 -134.202858 
L 327.004767 -134.004926 
L 325.0071 -133.859483 
L 323.009433 -133.766437 
L 321.011767 -133.691861 
L 319.0141 -133.606468 
L 317.016433 -133.513525 
L 315.018766 -133.433793 
L 313.021099 -133.376291 
L 311.023432 -133.334688 
L 309.025766 -133.303607 
L 307.028099 -133.283434 
L 305.030432 -133.270547 
L 303.032765 -133.256544 
L 301.035098 -133.238606 
L 299.037431 -133.222513 
L 297.039765 -133.214432 
L 295.042098 -133.213755 
L 293.044431 -133.214623 
L 291.046764 -133.211935 
L 289.049097 -133.205383 
z
" style="stroke: #414487; stroke-opacity: 0.55; stroke-width: 0.8"/>
    </defs>
    <g clip-path="url(#p6f276aed54)">
     <use xlink:href="#m370340242b" x="0" y="243.751937" style="fill: #414487; fill-opacity: 0.55; stroke: #414487; stroke-opacity: 0.55; stroke-width: 0.8"/>
    </g>
   </g>
   <g id="PolyCollection_6">
    <defs>
     <path id="m434ec8adb1" d="M 196.973184 -190.476167 
L 196.973184 -190.467693 
L 199.262942 -190.468047 
L 201.552699 -190.468383 
L 203.842457 -190.46723 
L 206.132215 -190.464978 
L 208.421972 -190.463629 
L 210.71173 -190.463968 
L 213.001487 -190.463991 
L 215.291245 -190.461221 
L 217.581003 -190.455776 
L 219.87076 -190.450264 
L 222.160518 -190.447309 
L 224.450276 -190.446997 
L 226.740033 -190.445709 
L 229.029791 -190.438969 
L 231.319549 -190.426443 
L 233.609306 -190.410301 
L 235.899064 -190.388627 
L 238.188822 -190.357808 
L 240.478579 -190.32089 
L 242.768337 -190.285193 
L 245.058095 -190.253011 
L 247.347852 -190.218892 
L 249.63761 -190.170365 
L 251.927367 -190.090849 
L 254.217125 -189.970141 
L 256.506883 -189.811255 
L 258.79664 -189.624393 
L 261.086398 -189.42243 
L 263.376156 -189.22393 
L 265.665913 -189.044275 
L 267.955671 -188.874669 
L 270.245429 -188.676369 
L 272.535186 -188.399702 
L 274.824944 -188.022929 
L 277.114702 -187.579274 
L 279.404459 -187.112927 
L 281.694217 -186.617598 
L 283.983975 -186.07574 
L 286.273732 -185.53107 
L 288.56349 -185.051517 
L 290.853248 -184.638044 
L 293.143005 -184.220004 
L 295.432763 -183.722998 
L 297.72252 -183.13099 
L 300.012278 -182.51704 
L 302.302036 -181.989447 
L 304.591793 -181.576297 
L 306.881551 -181.215888 
L 309.171309 -180.870973 
L 311.461066 -180.588376 
L 313.750824 -180.447655 
L 316.040582 -180.48971 
L 318.330339 -180.683169 
L 320.620097 -180.945015 
L 322.909855 -181.222393 
L 325.199612 -181.546312 
L 327.48937 -181.962685 
L 329.779128 -182.452711 
L 332.068885 -182.95001 
L 334.358643 -183.401012 
L 336.6484 -183.817056 
L 338.938158 -184.26016 
L 341.227916 -184.765134 
L 343.517673 -185.315109 
L 345.807431 -185.880387 
L 348.097189 -186.434486 
L 350.386946 -186.952863 
L 352.676704 -187.416874 
L 354.966462 -187.812083 
L 357.256219 -188.139725 
L 359.545977 -188.426917 
L 361.835735 -188.700198 
L 364.125492 -188.956596 
L 366.41525 -189.181676 
L 368.705008 -189.379508 
L 370.994765 -189.558274 
L 373.284523 -189.709557 
L 375.574281 -189.827313 
L 377.864038 -189.926286 
L 380.153796 -190.025108 
L 382.443553 -190.123608 
L 384.733311 -190.205688 
L 387.023069 -190.256947 
L 389.312826 -190.274648 
L 391.602584 -190.26787 
L 393.892342 -190.257398 
L 396.182099 -190.270871 
L 398.471857 -190.319469 
L 400.761615 -190.381661 
L 403.051372 -190.427273 
L 405.34113 -190.448166 
L 407.630888 -190.454625 
L 409.920645 -190.45691 
L 412.210403 -190.458982 
L 414.500161 -190.460886 
L 416.789918 -190.461669 
L 419.079676 -190.461552 
L 421.369433 -190.46194 
L 423.659191 -190.463816 
L 423.659191 -190.480044 
L 423.659191 -190.480044 
L 421.369433 -190.48192 
L 419.079676 -190.482307 
L 416.789918 -190.482191 
L 414.500161 -190.482974 
L 412.210403 -190.484878 
L 409.920645 -190.48695 
L 407.630888 -190.489235 
L 405.34113 -190.495694 
L 403.051372 -190.516587 
L 400.761615 -190.562198 
L 398.471857 -190.624391 
L 396.182099 -190.672989 
L 393.892342 -190.686462 
L 391.602584 -190.675989 
L 389.312826 -190.669211 
L 387.023069 -190.686913 
L 384.733311 -190.738172 
L 382.443553 -190.820252 
L 380.153796 -190.918751 
L 377.864038 -191.017574 
L 375.574281 -191.116547 
L 373.284523 -191.234303 
L 370.994765 -191.385586 
L 368.705008 -191.564351 
L 366.41525 -191.762184 
L 364.125492 -191.987263 
L 361.835735 -192.243662 
L 359.545977 -192.516942 
L 357.256219 -192.804134 
L 354.966462 -193.131777 
L 352.676704 -193.526986 
L 350.386946 -193.990996 
L 348.097189 -194.509373 
L 345.807431 -195.063473 
L 343.517673 -195.628751 
L 341.227916 -196.178726 
L 338.938158 -196.6837 
L 336.6484 -197.126804 
L 334.358643 -197.542847 
L 332.068885 -197.99385 
L 329.779128 -198.491149 
L 327.48937 -198.981174 
L 325.199612 -199.397547 
L 322.909855 -199.721467 
L 320.620097 -199.998845 
L 318.330339 -200.260691 
L 316.040582 -200.45415 
L 313.750824 -200.496205 
L 311.461066 -200.355483 
L 309.171309 -200.072887 
L 306.881551 -199.727972 
L 304.591793 -199.367563 
L 302.302036 -198.954413 
L 300.012278 -198.426819 
L 297.72252 -197.81287 
L 295.432763 -197.220862 
L 293.143005 -196.723855 
L 290.853248 -196.305816 
L 288.56349 -195.892343 
L 286.273732 -195.41279 
L 283.983975 -194.868119 
L 281.694217 -194.326262 
L 279.404459 -193.830933 
L 277.114702 -193.364585 
L 274.824944 -192.920931 
L 272.535186 -192.544157 
L 270.245429 -192.26749 
L 267.955671 -192.06919 
L 265.665913 -191.899585 
L 263.376156 -191.71993 
L 261.086398 -191.52143 
L 258.79664 -191.319466 
L 256.506883 -191.132605 
L 254.217125 -190.973719 
L 251.927367 -190.85301 
L 249.63761 -190.773494 
L 247.347852 -190.724968 
L 245.058095 -190.690849 
L 242.768337 -190.658666 
L 240.478579 -190.62297 
L 238.188822 -190.586052 
L 235.899064 -190.555233 
L 233.609306 -190.533558 
L 231.319549 -190.517416 
L 229.029791 -190.504891 
L 226.740033 -190.498151 
L 224.450276 -190.496863 
L 222.160518 -190.49655 
L 219.87076 -190.493596 
L 217.581003 -190.488084 
L 215.291245 -190.482639 
L 213.001487 -190.479869 
L 210.71173 -190.479891 
L 208.421972 -190.480231 
L 206.132215 -190.478881 
L 203.842457 -190.47663 
L 201.552699 -190.475476 
L 199.262942 -190.475813 
L 196.973184 -190.476167 
z
" style="stroke: #414487; stroke-opacity: 0.55; stroke-width: 0.8"/>
    </defs>
    <g clip-path="url(#p6f276aed54)">
     <use xlink:href="#m434ec8adb1" x="0" y="243.751937" style="fill: #414487; fill-opacity: 0.55; stroke: #414487; stroke-opacity: 0.55; stroke-width: 0.8"/>
    </g>
   </g>
   <g id="matplotlib.axis_1">
    <g id="xtick_1">
     <g id="line2d_1">
      <path d="M 138.959602 208.727875 
L 138.959602 33.875875 
" clip-path="url(#p6f276aed54)" style="fill: none; stroke: #888888; stroke-opacity: 0.2; stroke-width: 0.8; stroke-linecap: square"/>
     </g>
     <g id="line2d_2"/>
     <g id="text_1">
      <!-- −0.4 -->
      <g transform="translate(126.818196 219.826313)scale(0.1 -0.1)">
       <defs>
        <path id="DejaVuSans-2212" d="M 678 2272 
L 4684 2272 
L 4684 1741 
L 678 1741 
L 678 2272 
z
" transform="scale(0.015625)"/>
        <path id="DejaVuSans-30" d="M 2034 4250 
Q 1547 4250 1301 3770 
Q 1056 3291 1056 2328 
Q 1056 1369 1301 889 
Q 1547 409 2034 409 
Q 2525 409 2770 889 
Q 3016 1369 3016 2328 
Q 3016 3291 2770 3770 
Q 2525 4250 2034 4250 
z
M 2034 4750 
Q 2819 4750 3233 4129 
Q 3647 3509 3647 2328 
Q 3647 1150 3233 529 
Q 2819 -91 2034 -91 
Q 1250 -91 836 529 
Q 422 1150 422 2328 
Q 422 3509 836 4129 
Q 1250 4750 2034 4750 
z
" transform="scale(0.015625)"/>
        <path id="DejaVuSans-2e" d="M 684 794 
L 1344 794 
L 1344 0 
L 684 0 
L 684 794 
z
" transform="scale(0.015625)"/>
        <path id="DejaVuSans-34" d="M 2419 4116 
L 825 1625 
L 2419 1625 
L 2419 4116 
z
M 2253 4666 
L 3047 4666 
L 3047 1625 
L 3713 1625 
L 3713 1100 
L 3047 1100 
L 3047 0 
L 2419 0 
L 2419 1100 
L 313 1100 
L 313 1709 
L 2253 4666 
z
" transform="scale(0.015625)"/>
       </defs>
       <use xlink:href="#DejaVuSans-2212"/>
       <use xlink:href="#DejaVuSans-30" x="83.789062"/>
       <use xlink:href="#DejaVuSans-2e" x="147.412109"/>
       <use xlink:href="#DejaVuSans-34" x="179.199219"/>
      </g>
     </g>
    </g>
    <g id="xtick_2">
     <g id="line2d_3">
      <path d="M 251.352434 208.727875 
L 251.352434 33.875875 
" clip-path="url(#p6f276aed54)" style="fill: none; stroke: #888888; stroke-opacity: 0.2; stroke-width: 0.8; stroke-linecap: square"/>
     </g>
     <g id="line2d_4"/>
     <g id="text_2">
      <!-- −0.2 -->
      <g transform="translate(239.211028 219.826313)scale(0.1 -0.1)">
       <defs>
        <path id="DejaVuSans-32" d="M 1228 531 
L 3431 531 
L 3431 0 
L 469 0 
L 469 531 
Q 828 903 1448 1529 
Q 2069 2156 2228 2338 
Q 2531 2678 2651 2914 
Q 2772 3150 2772 3378 
Q 2772 3750 2511 3984 
Q 2250 4219 1831 4219 
Q 1534 4219 1204 4116 
Q 875 4013 500 3803 
L 500 4441 
Q 881 4594 1212 4672 
Q 1544 4750 1819 4750 
Q 2544 4750 2975 4387 
Q 3406 4025 3406 3419 
Q 3406 3131 3298 2873 
Q 3191 2616 2906 2266 
Q 2828 2175 2409 1742 
Q 1991 1309 1228 531 
z
" transform="scale(0.015625)"/>
       </defs>
       <use xlink:href="#DejaVuSans-2212"/>
       <use xlink:href="#DejaVuSans-30" x="83.789062"/>
       <use xlink:href="#DejaVuSans-2e" x="147.412109"/>
       <use xlink:href="#DejaVuSans-32" x="179.199219"/>
      </g>
     </g>
    </g>
    <g id="xtick_3">
     <g id="line2d_5">
      <path d="M 363.745265 208.727875 
L 363.745265 33.875875 
" clip-path="url(#p6f276aed54)" style="fill: none; stroke: #888888; stroke-opacity: 0.2; stroke-width: 0.8; stroke-linecap: square"/>
     </g>
     <g id="line2d_6"/>
     <g id="text_3">
      <!-- 0.0 -->
      <g transform="translate(355.793703 219.826313)scale(0.1 -0.1)">
       <use xlink:href="#DejaVuSans-30"/>
       <use xlink:href="#DejaVuSans-2e" x="63.623047"/>
       <use xlink:href="#DejaVuSans-30" x="95.410156"/>
      </g>
     </g>
    </g>
    <g id="xtick_4">
     <g id="line2d_7">
      <path d="M 476.138097 208.727875 
L 476.138097 33.875875 
" clip-path="url(#p6f276aed54)" style="fill: none; stroke: #888888; stroke-opacity: 0.2; stroke-width: 0.8; stroke-linecap: square"/>
     </g>
     <g id="line2d_8"/>
     <g id="text_4">
      <!-- 0.2 -->
      <g transform="translate(468.186534 219.826313)scale(0.1 -0.1)">
       <use xlink:href="#DejaVuSans-30"/>
       <use xlink:href="#DejaVuSans-2e" x="63.623047"/>
       <use xlink:href="#DejaVuSans-32" x="95.410156"/>
      </g>
     </g>
    </g>
    <g id="xtick_5">
     <g id="line2d_9">
      <path d="M 588.530928 208.727875 
L 588.530928 33.875875 
" clip-path="url(#p6f276aed54)" style="fill: none; stroke: #888888; stroke-opacity: 0.2; stroke-width: 0.8; stroke-linecap: square"/>
     </g>
     <g id="line2d_10"/>
     <g id="text_5">
      <!-- 0.4 -->
      <g transform="translate(580.579366 219.826313)scale(0.1 -0.1)">
       <use xlink:href="#DejaVuSans-30"/>
       <use xlink:href="#DejaVuSans-2e" x="63.623047"/>
       <use xlink:href="#DejaVuSans-34" x="95.410156"/>
      </g>
     </g>
    </g>
    <g id="text_6">
     <!-- Standardized Effect Size -->
     <g transform="translate(293.256953 234.264281)scale(0.11 -0.11)">
      <defs>
       <path id="DejaVuSans-53" d="M 3425 4513 
L 3425 3897 
Q 3066 4069 2747 4153 
Q 2428 4238 2131 4238 
Q 1616 4238 1336 4038 
Q 1056 3838 1056 3469 
Q 1056 3159 1242 3001 
Q 1428 2844 1947 2747 
L 2328 2669 
Q 3034 2534 3370 2195 
Q 3706 1856 3706 1288 
Q 3706 609 3251 259 
Q 2797 -91 1919 -91 
Q 1588 -91 1214 -16 
Q 841 59 441 206 
L 441 856 
Q 825 641 1194 531 
Q 1563 422 1919 422 
Q 2459 422 2753 634 
Q 3047 847 3047 1241 
Q 3047 1584 2836 1778 
Q 2625 1972 2144 2069 
L 1759 2144 
Q 1053 2284 737 2584 
Q 422 2884 422 3419 
Q 422 4038 858 4394 
Q 1294 4750 2059 4750 
Q 2388 4750 2728 4690 
Q 3069 4631 3425 4513 
z
" transform="scale(0.015625)"/>
       <path id="DejaVuSans-74" d="M 1172 4494 
L 1172 3500 
L 2356 3500 
L 2356 3053 
L 1172 3053 
L 1172 1153 
Q 1172 725 1289 603 
Q 1406 481 1766 481 
L 2356 481 
L 2356 0 
L 1766 0 
Q 1100 0 847 248 
Q 594 497 594 1153 
L 594 3053 
L 172 3053 
L 172 3500 
L 594 3500 
L 594 4494 
L 1172 4494 
z
" transform="scale(0.015625)"/>
       <path id="DejaVuSans-61" d="M 2194 1759 
Q 1497 1759 1228 1600 
Q 959 1441 959 1056 
Q 959 750 1161 570 
Q 1363 391 1709 391 
Q 2188 391 2477 730 
Q 2766 1069 2766 1631 
L 2766 1759 
L 2194 1759 
z
M 3341 1997 
L 3341 0 
L 2766 0 
L 2766 531 
Q 2569 213 2275 61 
Q 1981 -91 1556 -91 
Q 1019 -91 701 211 
Q 384 513 384 1019 
Q 384 1609 779 1909 
Q 1175 2209 1959 2209 
L 2766 2209 
L 2766 2266 
Q 2766 2663 2505 2880 
Q 2244 3097 1772 3097 
Q 1472 3097 1187 3025 
Q 903 2953 641 2809 
L 641 3341 
Q 956 3463 1253 3523 
Q 1550 3584 1831 3584 
Q 2591 3584 2966 3190 
Q 3341 2797 3341 1997 
z
" transform="scale(0.015625)"/>
       <path id="DejaVuSans-6e" d="M 3513 2113 
L 3513 0 
L 2938 0 
L 2938 2094 
Q 2938 2591 2744 2837 
Q 2550 3084 2163 3084 
Q 1697 3084 1428 2787 
Q 1159 2491 1159 1978 
L 1159 0 
L 581 0 
L 581 3500 
L 1159 3500 
L 1159 2956 
Q 1366 3272 1645 3428 
Q 1925 3584 2291 3584 
Q 2894 3584 3203 3211 
Q 3513 2838 3513 2113 
z
" transform="scale(0.015625)"/>
       <path id="DejaVuSans-64" d="M 2906 2969 
L 2906 4863 
L 3481 4863 
L 3481 0 
L 2906 0 
L 2906 525 
Q 2725 213 2448 61 
Q 2172 -91 1784 -91 
Q 1150 -91 751 415 
Q 353 922 353 1747 
Q 353 2572 751 3078 
Q 1150 3584 1784 3584 
Q 2172 3584 2448 3432 
Q 2725 3281 2906 2969 
z
M 947 1747 
Q 947 1113 1208 752 
Q 1469 391 1925 391 
Q 2381 391 2643 752 
Q 2906 1113 2906 1747 
Q 2906 2381 2643 2742 
Q 2381 3103 1925 3103 
Q 1469 3103 1208 2742 
Q 947 2381 947 1747 
z
" transform="scale(0.015625)"/>
       <path id="DejaVuSans-72" d="M 2631 2963 
Q 2534 3019 2420 3045 
Q 2306 3072 2169 3072 
Q 1681 3072 1420 2755 
Q 1159 2438 1159 1844 
L 1159 0 
L 581 0 
L 581 3500 
L 1159 3500 
L 1159 2956 
Q 1341 3275 1631 3429 
Q 1922 3584 2338 3584 
Q 2397 3584 2469 3576 
Q 2541 3569 2628 3553 
L 2631 2963 
z
" transform="scale(0.015625)"/>
       <path id="DejaVuSans-69" d="M 603 3500 
L 1178 3500 
L 1178 0 
L 603 0 
L 603 3500 
z
M 603 4863 
L 1178 4863 
L 1178 4134 
L 603 4134 
L 603 4863 
z
" transform="scale(0.015625)"/>
       <path id="DejaVuSans-7a" d="M 353 3500 
L 3084 3500 
L 3084 2975 
L 922 459 
L 3084 459 
L 3084 0 
L 275 0 
L 275 525 
L 2438 3041 
L 353 3041 
L 353 3500 
z
" transform="scale(0.015625)"/>
       <path id="DejaVuSans-65" d="M 3597 1894 
L 3597 1613 
L 953 1613 
Q 991 1019 1311 708 
Q 1631 397 2203 397 
Q 2534 397 2845 478 
Q 3156 559 3463 722 
L 3463 178 
Q 3153 47 2828 -22 
Q 2503 -91 2169 -91 
Q 1331 -91 842 396 
Q 353 884 353 1716 
Q 353 2575 817 3079 
Q 1281 3584 2069 3584 
Q 2775 3584 3186 3129 
Q 3597 2675 3597 1894 
z
M 3022 2063 
Q 3016 2534 2758 2815 
Q 2500 3097 2075 3097 
Q 1594 3097 1305 2825 
Q 1016 2553 972 2059 
L 3022 2063 
z
" transform="scale(0.015625)"/>
       <path id="DejaVuSans-20" transform="scale(0.015625)"/>
       <path id="DejaVuSans-45" d="M 628 4666 
L 3578 4666 
L 3578 4134 
L 1259 4134 
L 1259 2753 
L 3481 2753 
L 3481 2222 
L 1259 2222 
L 1259 531 
L 3634 531 
L 3634 0 
L 628 0 
L 628 4666 
z
" transform="scale(0.015625)"/>
       <path id="DejaVuSans-66" d="M 2375 4863 
L 2375 4384 
L 1825 4384 
Q 1516 4384 1395 4259 
Q 1275 4134 1275 3809 
L 1275 3500 
L 2222 3500 
L 2222 3053 
L 1275 3053 
L 1275 0 
L 697 0 
L 697 3053 
L 147 3053 
L 147 3500 
L 697 3500 
L 697 3744 
Q 697 4328 969 4595 
Q 1241 4863 1831 4863 
L 2375 4863 
z
" transform="scale(0.015625)"/>
       <path id="DejaVuSans-63" d="M 3122 3366 
L 3122 2828 
Q 2878 2963 2633 3030 
Q 2388 3097 2138 3097 
Q 1578 3097 1268 2742 
Q 959 2388 959 1747 
Q 959 1106 1268 751 
Q 1578 397 2138 397 
Q 2388 397 2633 464 
Q 2878 531 3122 666 
L 3122 134 
Q 2881 22 2623 -34 
Q 2366 -91 2075 -91 
Q 1284 -91 818 406 
Q 353 903 353 1747 
Q 353 2603 823 3093 
Q 1294 3584 2113 3584 
Q 2378 3584 2631 3529 
Q 2884 3475 3122 3366 
z
" transform="scale(0.015625)"/>
      </defs>
      <use xlink:href="#DejaVuSans-53"/>
      <use xlink:href="#DejaVuSans-74" x="63.476562"/>
      <use xlink:href="#DejaVuSans-61" x="102.685547"/>
      <use xlink:href="#DejaVuSans-6e" x="163.964844"/>
      <use xlink:href="#DejaVuSans-64" x="227.34375"/>
      <use xlink:href="#DejaVuSans-61" x="290.820312"/>
      <use xlink:href="#DejaVuSans-72" x="352.099609"/>
      <use xlink:href="#DejaVuSans-64" x="391.462891"/>
      <use xlink:href="#DejaVuSans-69" x="454.939453"/>
      <use xlink:href="#DejaVuSans-7a" x="482.722656"/>
      <use xlink:href="#DejaVuSans-65" x="535.212891"/>
      <use xlink:href="#DejaVuSans-64" x="596.736328"/>
      <use xlink:href="#DejaVuSans-20" x="660.212891"/>
      <use xlink:href="#DejaVuSans-45" x="692"/>
      <use xlink:href="#DejaVuSans-66" x="755.183594"/>
      <use xlink:href="#DejaVuSans-66" x="790.388672"/>
      <use xlink:href="#DejaVuSans-65" x="825.59375"/>
      <use xlink:href="#DejaVuSans-63" x="887.117188"/>
      <use xlink:href="#DejaVuSans-74" x="942.097656"/>
      <use xlink:href="#DejaVuSans-20" x="981.306641"/>
      <use xlink:href="#DejaVuSans-53" x="1013.09375"/>
      <use xlink:href="#DejaVuSans-69" x="1076.570312"/>
      <use xlink:href="#DejaVuSans-7a" x="1104.353516"/>
      <use xlink:href="#DejaVuSans-65" x="1156.84375"/>
     </g>
    </g>
   </g>
   <g id="matplotlib.axis_2">
    <g id="ytick_1">
     <g id="line2d_11"/>
     <g id="text_7">
      <!-- log_n_speakers -->
      <g transform="translate(7.2 183.098686)scale(0.1 -0.1)">
       <defs>
        <path id="DejaVuSans-6c" d="M 603 4863 
L 1178 4863 
L 1178 0 
L 603 0 
L 603 4863 
z
" transform="scale(0.015625)"/>
        <path id="DejaVuSans-6f" d="M 1959 3097 
Q 1497 3097 1228 2736 
Q 959 2375 959 1747 
Q 959 1119 1226 758 
Q 1494 397 1959 397 
Q 2419 397 2687 759 
Q 2956 1122 2956 1747 
Q 2956 2369 2687 2733 
Q 2419 3097 1959 3097 
z
M 1959 3584 
Q 2709 3584 3137 3096 
Q 3566 2609 3566 1747 
Q 3566 888 3137 398 
Q 2709 -91 1959 -91 
Q 1206 -91 779 398 
Q 353 888 353 1747 
Q 353 2609 779 3096 
Q 1206 3584 1959 3584 
z
" transform="scale(0.015625)"/>
        <path id="DejaVuSans-67" d="M 2906 1791 
Q 2906 2416 2648 2759 
Q 2391 3103 1925 3103 
Q 1463 3103 1205 2759 
Q 947 2416 947 1791 
Q 947 1169 1205 825 
Q 1463 481 1925 481 
Q 2391 481 2648 825 
Q 2906 1169 2906 1791 
z
M 3481 434 
Q 3481 -459 3084 -895 
Q 2688 -1331 1869 -1331 
Q 1566 -1331 1297 -1286 
Q 1028 -1241 775 -1147 
L 775 -588 
Q 1028 -725 1275 -790 
Q 1522 -856 1778 -856 
Q 2344 -856 2625 -561 
Q 2906 -266 2906 331 
L 2906 616 
Q 2728 306 2450 153 
Q 2172 0 1784 0 
Q 1141 0 747 490 
Q 353 981 353 1791 
Q 353 2603 747 3093 
Q 1141 3584 1784 3584 
Q 2172 3584 2450 3431 
Q 2728 3278 2906 2969 
L 2906 3500 
L 3481 3500 
L 3481 434 
z
" transform="scale(0.015625)"/>
        <path id="DejaVuSans-5f" d="M 3263 -1063 
L 3263 -1509 
L -63 -1509 
L -63 -1063 
L 3263 -1063 
z
" transform="scale(0.015625)"/>
        <path id="DejaVuSans-73" d="M 2834 3397 
L 2834 2853 
Q 2591 2978 2328 3040 
Q 2066 3103 1784 3103 
Q 1356 3103 1142 2972 
Q 928 2841 928 2578 
Q 928 2378 1081 2264 
Q 1234 2150 1697 2047 
L 1894 2003 
Q 2506 1872 2764 1633 
Q 3022 1394 3022 966 
Q 3022 478 2636 193 
Q 2250 -91 1575 -91 
Q 1294 -91 989 -36 
Q 684 19 347 128 
L 347 722 
Q 666 556 975 473 
Q 1284 391 1588 391 
Q 1994 391 2212 530 
Q 2431 669 2431 922 
Q 2431 1156 2273 1281 
Q 2116 1406 1581 1522 
L 1381 1569 
Q 847 1681 609 1914 
Q 372 2147 372 2553 
Q 372 3047 722 3315 
Q 1072 3584 1716 3584 
Q 2034 3584 2315 3537 
Q 2597 3491 2834 3397 
z
" transform="scale(0.015625)"/>
        <path id="DejaVuSans-70" d="M 1159 525 
L 1159 -1331 
L 581 -1331 
L 581 3500 
L 1159 3500 
L 1159 2969 
Q 1341 3281 1617 3432 
Q 1894 3584 2278 3584 
Q 2916 3584 3314 3078 
Q 3713 2572 3713 1747 
Q 3713 922 3314 415 
Q 2916 -91 2278 -91 
Q 1894 -91 1617 61 
Q 1341 213 1159 525 
z
M 3116 1747 
Q 3116 2381 2855 2742 
Q 2594 3103 2138 3103 
Q 1681 3103 1420 2742 
Q 1159 2381 1159 1747 
Q 1159 1113 1420 752 
Q 1681 391 2138 391 
Q 2594 391 2855 752 
Q 3116 1113 3116 1747 
z
" transform="scale(0.015625)"/>
        <path id="DejaVuSans-6b" d="M 581 4863 
L 1159 4863 
L 1159 1991 
L 2875 3500 
L 3609 3500 
L 1753 1863 
L 3688 0 
L 2938 0 
L 1159 1709 
L 1159 0 
L 581 0 
L 581 4863 
z
" transform="scale(0.015625)"/>
       </defs>
       <use xlink:href="#DejaVuSans-6c"/>
       <use xlink:href="#DejaVuSans-6f" x="27.783203"/>
       <use xlink:href="#DejaVuSans-67" x="88.964844"/>
       <use xlink:href="#DejaVuSans-5f" x="152.441406"/>
       <use xlink:href="#DejaVuSans-6e" x="202.441406"/>
       <use xlink:href="#DejaVuSans-5f" x="265.820312"/>
       <use xlink:href="#DejaVuSans-73" x="315.820312"/>
       <use xlink:href="#DejaVuSans-70" x="367.919922"/>
       <use xlink:href="#DejaVuSans-65" x="431.396484"/>
       <use xlink:href="#DejaVuSans-61" x="492.919922"/>
       <use xlink:href="#DejaVuSans-6b" x="554.199219"/>
       <use xlink:href="#DejaVuSans-65" x="608.484375"/>
       <use xlink:href="#DejaVuSans-72" x="670.007812"/>
       <use xlink:href="#DejaVuSans-73" x="711.121094"/>
      </g>
     </g>
    </g>
    <g id="ytick_2">
     <g id="line2d_12"/>
     <g id="text_8">
      <!-- n_segments -->
      <g transform="translate(23.114062 125.678051)scale(0.1 -0.1)">
       <defs>
        <path id="DejaVuSans-6d" d="M 3328 2828 
Q 3544 3216 3844 3400 
Q 4144 3584 4550 3584 
Q 5097 3584 5394 3201 
Q 5691 2819 5691 2113 
L 5691 0 
L 5113 0 
L 5113 2094 
Q 5113 2597 4934 2840 
Q 4756 3084 4391 3084 
Q 3944 3084 3684 2787 
Q 3425 2491 3425 1978 
L 3425 0 
L 2847 0 
L 2847 2094 
Q 2847 2600 2669 2842 
Q 2491 3084 2119 3084 
Q 1678 3084 1418 2786 
Q 1159 2488 1159 1978 
L 1159 0 
L 581 0 
L 581 3500 
L 1159 3500 
L 1159 2956 
Q 1356 3278 1631 3431 
Q 1906 3584 2284 3584 
Q 2666 3584 2933 3390 
Q 3200 3197 3328 2828 
z
" transform="scale(0.015625)"/>
       </defs>
       <use xlink:href="#DejaVuSans-6e"/>
       <use xlink:href="#DejaVuSans-5f" x="63.378906"/>
       <use xlink:href="#DejaVuSans-73" x="113.378906"/>
       <use xlink:href="#DejaVuSans-65" x="165.478516"/>
       <use xlink:href="#DejaVuSans-67" x="227.001953"/>
       <use xlink:href="#DejaVuSans-6d" x="290.478516"/>
       <use xlink:href="#DejaVuSans-65" x="387.890625"/>
       <use xlink:href="#DejaVuSans-6e" x="449.414062"/>
       <use xlink:href="#DejaVuSans-74" x="512.792969"/>
       <use xlink:href="#DejaVuSans-73" x="552.001953"/>
      </g>
     </g>
    </g>
    <g id="ytick_3">
     <g id="line2d_13"/>
     <g id="text_9">
      <!-- delta -->
      <g transform="translate(58.195312 68.535541)scale(0.1 -0.1)">
       <use xlink:href="#DejaVuSans-64"/>
       <use xlink:href="#DejaVuSans-65" x="63.476562"/>
       <use xlink:href="#DejaVuSans-6c" x="125"/>
       <use xlink:href="#DejaVuSans-74" x="152.783203"/>
       <use xlink:href="#DejaVuSans-61" x="191.992188"/>
      </g>
     </g>
    </g>
   </g>
   <g id="line2d_14">
    <path d="M 262.150487 190.755782 
L 430.672147 190.755782 
" clip-path="url(#p6f276aed54)" style="fill: none; stroke: #7ad151; stroke-opacity: 0.9; stroke-width: 2.5; stroke-linecap: square"/>
   </g>
   <g id="line2d_15">
    <path d="M 262.150487 197.62957 
L 262.150487 183.881993 
" clip-path="url(#p6f276aed54)" style="fill: none; stroke: #7ad151; stroke-opacity: 0.9; stroke-width: 2.5; stroke-linecap: square"/>
   </g>
   <g id="line2d_16">
    <path d="M 430.672147 197.62957 
L 430.672147 183.881993 
" clip-path="url(#p6f276aed54)" style="fill: none; stroke: #7ad151; stroke-opacity: 0.9; stroke-width: 2.5; stroke-linecap: square"/>
   </g>
   <g id="line2d_17">
    <path d="M 263.430841 133.474209 
L 439.55955 133.474209 
" clip-path="url(#p6f276aed54)" style="fill: none; stroke: #7ad151; stroke-opacity: 0.9; stroke-width: 2.5; stroke-linecap: square"/>
   </g>
   <g id="line2d_18">
    <path d="M 263.430841 140.347998 
L 263.430841 126.60042 
" clip-path="url(#p6f276aed54)" style="fill: none; stroke: #7ad151; stroke-opacity: 0.9; stroke-width: 2.5; stroke-linecap: square"/>
   </g>
   <g id="line2d_19">
    <path d="M 439.55955 140.347998 
L 439.55955 126.60042 
" clip-path="url(#p6f276aed54)" style="fill: none; stroke: #7ad151; stroke-opacity: 0.9; stroke-width: 2.5; stroke-linecap: square"/>
   </g>
   <g id="line2d_20">
    <path d="M 216.772594 76.192637 
L 399.422589 76.192637 
" clip-path="url(#p6f276aed54)" style="fill: none; stroke: #7ad151; stroke-opacity: 0.9; stroke-width: 2.5; stroke-linecap: square"/>
   </g>
   <g id="line2d_21">
    <path d="M 216.772594 83.066425 
L 216.772594 69.318848 
" clip-path="url(#p6f276aed54)" style="fill: none; stroke: #7ad151; stroke-opacity: 0.9; stroke-width: 2.5; stroke-linecap: square"/>
   </g>
   <g id="line2d_22">
    <path d="M 399.422589 83.066425 
L 399.422589 69.318848 
" clip-path="url(#p6f276aed54)" style="fill: none; stroke: #7ad151; stroke-opacity: 0.9; stroke-width: 2.5; stroke-linecap: square"/>
   </g>
   <g id="line2d_23">
    <path d="M 329.167238 167.843153 
L 408.520196 167.843153 
" clip-path="url(#p6f276aed54)" style="fill: none; stroke: #414487; stroke-opacity: 0.9; stroke-width: 2.5; stroke-linecap: square"/>
   </g>
   <g id="line2d_24">
    <path d="M 329.167238 174.716941 
L 329.167238 160.969364 
" clip-path="url(#p6f276aed54)" style="fill: none; stroke: #414487; stroke-opacity: 0.9; stroke-width: 2.5; stroke-linecap: square"/>
   </g>
   <g id="line2d_25">
    <path d="M 408.520196 174.716941 
L 408.520196 160.969364 
" clip-path="url(#p6f276aed54)" style="fill: none; stroke: #414487; stroke-opacity: 0.9; stroke-width: 2.5; stroke-linecap: square"/>
   </g>
   <g id="line2d_26">
    <path d="M 332.070538 110.56158 
L 416.768765 110.56158 
" clip-path="url(#p6f276aed54)" style="fill: none; stroke: #414487; stroke-opacity: 0.9; stroke-width: 2.5; stroke-linecap: square"/>
   </g>
   <g id="line2d_27">
    <path d="M 332.070538 117.435369 
L 332.070538 103.687791 
" clip-path="url(#p6f276aed54)" style="fill: none; stroke: #414487; stroke-opacity: 0.9; stroke-width: 2.5; stroke-linecap: square"/>
   </g>
   <g id="line2d_28">
    <path d="M 416.768765 117.435369 
L 416.768765 103.687791 
" clip-path="url(#p6f276aed54)" style="fill: none; stroke: #414487; stroke-opacity: 0.9; stroke-width: 2.5; stroke-linecap: square"/>
   </g>
   <g id="line2d_29">
    <path d="M 265.363095 53.280008 
L 366.891669 53.280008 
" clip-path="url(#p6f276aed54)" style="fill: none; stroke: #414487; stroke-opacity: 0.9; stroke-width: 2.5; stroke-linecap: square"/>
   </g>
   <g id="line2d_30">
    <path d="M 265.363095 60.153796 
L 265.363095 46.406219 
" clip-path="url(#p6f276aed54)" style="fill: none; stroke: #414487; stroke-opacity: 0.9; stroke-width: 2.5; stroke-linecap: square"/>
   </g>
   <g id="line2d_31">
    <path d="M 366.891669 60.153796 
L 366.891669 46.406219 
" clip-path="url(#p6f276aed54)" style="fill: none; stroke: #414487; stroke-opacity: 0.9; stroke-width: 2.5; stroke-linecap: square"/>
   </g>
   <g id="line2d_32">
    <path d="M 363.745265 208.727875 
L 363.745265 33.875875 
" clip-path="url(#p6f276aed54)" style="fill: none; stroke: #333333; stroke-opacity: 0.6; stroke-width: 0.8; stroke-linecap: square"/>
   </g>
   <g id="patch_4">
    <path d="M 87.023437 208.727875 
L 633.513437 208.727875 
" style="fill: none; stroke: #cccccc; stroke-width: 0.8; stroke-linejoin: miter; stroke-linecap: square"/>
   </g>
   <g id="text_10">
    <!-- -0.18 -->
    <g style="fill: #7ad151; opacity: 0.9" transform="translate(254.388456 180.915733)scale(0.06 -0.06)">
     <defs>
      <path id="DejaVuSans-2d" d="M 313 2009 
L 1997 2009 
L 1997 1497 
L 313 1497 
L 313 2009 
z
" transform="scale(0.015625)"/>
      <path id="DejaVuSans-31" d="M 794 531 
L 1825 531 
L 1825 4091 
L 703 3866 
L 703 4441 
L 1819 4666 
L 2450 4666 
L 2450 531 
L 3481 531 
L 3481 0 
L 794 0 
L 794 531 
z
" transform="scale(0.015625)"/>
      <path id="DejaVuSans-38" d="M 2034 2216 
Q 1584 2216 1326 1975 
Q 1069 1734 1069 1313 
Q 1069 891 1326 650 
Q 1584 409 2034 409 
Q 2484 409 2743 651 
Q 3003 894 3003 1313 
Q 3003 1734 2745 1975 
Q 2488 2216 2034 2216 
z
M 1403 2484 
Q 997 2584 770 2862 
Q 544 3141 544 3541 
Q 544 4100 942 4425 
Q 1341 4750 2034 4750 
Q 2731 4750 3128 4425 
Q 3525 4100 3525 3541 
Q 3525 3141 3298 2862 
Q 3072 2584 2669 2484 
Q 3125 2378 3379 2068 
Q 3634 1759 3634 1313 
Q 3634 634 3220 271 
Q 2806 -91 2034 -91 
Q 1263 -91 848 271 
Q 434 634 434 1313 
Q 434 1759 690 2068 
Q 947 2378 1403 2484 
z
M 1172 3481 
Q 1172 3119 1398 2916 
Q 1625 2713 2034 2713 
Q 2441 2713 2670 2916 
Q 2900 3119 2900 3481 
Q 2900 3844 2670 4047 
Q 2441 4250 2034 4250 
Q 1625 4250 1398 4047 
Q 1172 3844 1172 3481 
z
" transform="scale(0.015625)"/>
     </defs>
     <use xlink:href="#DejaVuSans-2d"/>
     <use xlink:href="#DejaVuSans-30" x="36.083984"/>
     <use xlink:href="#DejaVuSans-2e" x="99.707031"/>
     <use xlink:href="#DejaVuSans-31" x="131.494141"/>
     <use xlink:href="#DejaVuSans-38" x="195.117188"/>
    </g>
   </g>
   <g id="text_11">
    <!-- 0.12 -->
    <g style="fill: #7ad151; opacity: 0.9" transform="translate(423.992459 180.915733)scale(0.06 -0.06)">
     <use xlink:href="#DejaVuSans-30"/>
     <use xlink:href="#DejaVuSans-2e" x="63.623047"/>
     <use xlink:href="#DejaVuSans-31" x="95.410156"/>
     <use xlink:href="#DejaVuSans-32" x="159.033203"/>
    </g>
   </g>
   <g id="text_12">
    <!-- -0.18 -->
    <g style="fill: #7ad151; opacity: 0.9" transform="translate(255.66881 123.634161)scale(0.06 -0.06)">
     <use xlink:href="#DejaVuSans-2d"/>
     <use xlink:href="#DejaVuSans-30" x="36.083984"/>
     <use xlink:href="#DejaVuSans-2e" x="99.707031"/>
     <use xlink:href="#DejaVuSans-31" x="131.494141"/>
     <use xlink:href="#DejaVuSans-38" x="195.117188"/>
    </g>
   </g>
   <g id="text_13">
    <!-- 0.13 -->
    <g style="fill: #7ad151; opacity: 0.9" transform="translate(432.879862 123.634161)scale(0.06 -0.06)">
     <defs>
      <path id="DejaVuSans-33" d="M 2597 2516 
Q 3050 2419 3304 2112 
Q 3559 1806 3559 1356 
Q 3559 666 3084 287 
Q 2609 -91 1734 -91 
Q 1441 -91 1130 -33 
Q 819 25 488 141 
L 488 750 
Q 750 597 1062 519 
Q 1375 441 1716 441 
Q 2309 441 2620 675 
Q 2931 909 2931 1356 
Q 2931 1769 2642 2001 
Q 2353 2234 1838 2234 
L 1294 2234 
L 1294 2753 
L 1863 2753 
Q 2328 2753 2575 2939 
Q 2822 3125 2822 3475 
Q 2822 3834 2567 4026 
Q 2313 4219 1838 4219 
Q 1578 4219 1281 4162 
Q 984 4106 628 3988 
L 628 4550 
Q 988 4650 1302 4700 
Q 1616 4750 1894 4750 
Q 2613 4750 3031 4423 
Q 3450 4097 3450 3541 
Q 3450 3153 3228 2886 
Q 3006 2619 2597 2516 
z
" transform="scale(0.015625)"/>
     </defs>
     <use xlink:href="#DejaVuSans-30"/>
     <use xlink:href="#DejaVuSans-2e" x="63.623047"/>
     <use xlink:href="#DejaVuSans-31" x="95.410156"/>
     <use xlink:href="#DejaVuSans-33" x="159.033203"/>
    </g>
   </g>
   <g id="text_14">
    <!-- -0.26 -->
    <g style="fill: #7ad151; opacity: 0.9" transform="translate(209.010562 66.352588)scale(0.06 -0.06)">
     <defs>
      <path id="DejaVuSans-36" d="M 2113 2584 
Q 1688 2584 1439 2293 
Q 1191 2003 1191 1497 
Q 1191 994 1439 701 
Q 1688 409 2113 409 
Q 2538 409 2786 701 
Q 3034 994 3034 1497 
Q 3034 2003 2786 2293 
Q 2538 2584 2113 2584 
z
M 3366 4563 
L 3366 3988 
Q 3128 4100 2886 4159 
Q 2644 4219 2406 4219 
Q 1781 4219 1451 3797 
Q 1122 3375 1075 2522 
Q 1259 2794 1537 2939 
Q 1816 3084 2150 3084 
Q 2853 3084 3261 2657 
Q 3669 2231 3669 1497 
Q 3669 778 3244 343 
Q 2819 -91 2113 -91 
Q 1303 -91 875 529 
Q 447 1150 447 2328 
Q 447 3434 972 4092 
Q 1497 4750 2381 4750 
Q 2619 4750 2861 4703 
Q 3103 4656 3366 4563 
z
" transform="scale(0.015625)"/>
     </defs>
     <use xlink:href="#DejaVuSans-2d"/>
     <use xlink:href="#DejaVuSans-30" x="36.083984"/>
     <use xlink:href="#DejaVuSans-2e" x="99.707031"/>
     <use xlink:href="#DejaVuSans-32" x="131.494141"/>
     <use xlink:href="#DejaVuSans-36" x="195.117188"/>
    </g>
   </g>
   <g id="text_15">
    <!-- 0.06 -->
    <g style="fill: #7ad151; opacity: 0.9" transform="translate(392.742901 66.352588)scale(0.06 -0.06)">
     <use xlink:href="#DejaVuSans-30"/>
     <use xlink:href="#DejaVuSans-2e" x="63.623047"/>
     <use xlink:href="#DejaVuSans-30" x="95.410156"/>
     <use xlink:href="#DejaVuSans-36" x="159.033203"/>
    </g>
   </g>
   <g id="text_16">
    <!-- -0.06 -->
    <g style="fill: #414487; opacity: 0.9" transform="translate(321.405206 158.003104)scale(0.06 -0.06)">
     <use xlink:href="#DejaVuSans-2d"/>
     <use xlink:href="#DejaVuSans-30" x="36.083984"/>
     <use xlink:href="#DejaVuSans-2e" x="99.707031"/>
     <use xlink:href="#DejaVuSans-30" x="131.494141"/>
     <use xlink:href="#DejaVuSans-36" x="195.117188"/>
    </g>
   </g>
   <g id="text_17">
    <!-- 0.08 -->
    <g style="fill: #414487; opacity: 0.9" transform="translate(401.840509 158.003104)scale(0.06 -0.06)">
     <use xlink:href="#DejaVuSans-30"/>
     <use xlink:href="#DejaVuSans-2e" x="63.623047"/>
     <use xlink:href="#DejaVuSans-30" x="95.410156"/>
     <use xlink:href="#DejaVuSans-38" x="159.033203"/>
    </g>
   </g>
   <g id="text_18">
    <!-- -0.06 -->
    <g style="fill: #414487; opacity: 0.9" transform="translate(324.308507 100.721532)scale(0.06 -0.06)">
     <use xlink:href="#DejaVuSans-2d"/>
     <use xlink:href="#DejaVuSans-30" x="36.083984"/>
     <use xlink:href="#DejaVuSans-2e" x="99.707031"/>
     <use xlink:href="#DejaVuSans-30" x="131.494141"/>
     <use xlink:href="#DejaVuSans-36" x="195.117188"/>
    </g>
   </g>
   <g id="text_19">
    <!-- 0.09 -->
    <g style="fill: #414487; opacity: 0.9" transform="translate(410.089077 100.721532)scale(0.06 -0.06)">
     <defs>
      <path id="DejaVuSans-39" d="M 703 97 
L 703 672 
Q 941 559 1184 500 
Q 1428 441 1663 441 
Q 2288 441 2617 861 
Q 2947 1281 2994 2138 
Q 2813 1869 2534 1725 
Q 2256 1581 1919 1581 
Q 1219 1581 811 2004 
Q 403 2428 403 3163 
Q 403 3881 828 4315 
Q 1253 4750 1959 4750 
Q 2769 4750 3195 4129 
Q 3622 3509 3622 2328 
Q 3622 1225 3098 567 
Q 2575 -91 1691 -91 
Q 1453 -91 1209 -44 
Q 966 3 703 97 
z
M 1959 2075 
Q 2384 2075 2632 2365 
Q 2881 2656 2881 3163 
Q 2881 3666 2632 3958 
Q 2384 4250 1959 4250 
Q 1534 4250 1286 3958 
Q 1038 3666 1038 3163 
Q 1038 2656 1286 2365 
Q 1534 2075 1959 2075 
z
" transform="scale(0.015625)"/>
     </defs>
     <use xlink:href="#DejaVuSans-30"/>
     <use xlink:href="#DejaVuSans-2e" x="63.623047"/>
     <use xlink:href="#DejaVuSans-30" x="95.410156"/>
     <use xlink:href="#DejaVuSans-39" x="159.033203"/>
    </g>
   </g>
   <g id="text_20">
    <!-- -0.18 -->
    <g style="fill: #414487; opacity: 0.9" transform="translate(257.601063 43.439959)scale(0.06 -0.06)">
     <use xlink:href="#DejaVuSans-2d"/>
     <use xlink:href="#DejaVuSans-30" x="36.083984"/>
     <use xlink:href="#DejaVuSans-2e" x="99.707031"/>
     <use xlink:href="#DejaVuSans-31" x="131.494141"/>
     <use xlink:href="#DejaVuSans-38" x="195.117188"/>
    </g>
   </g>
   <g id="text_21">
    <!-- 0.01 -->
    <g style="fill: #414487; opacity: 0.9" transform="translate(360.211981 43.439959)scale(0.06 -0.06)">
     <use xlink:href="#DejaVuSans-30"/>
     <use xlink:href="#DejaVuSans-2e" x="63.623047"/>
     <use xlink:href="#DejaVuSans-30" x="95.410156"/>
     <use xlink:href="#DejaVuSans-31" x="159.033203"/>
    </g>
   </g>
   <g id="text_22">
    <!-- Coefficient Estimates (95% CI) -->
    <g transform="translate(276.318672 15.558281)scale(0.11 -0.11)">
     <defs>
      <path id="DejaVuSans-43" d="M 4122 4306 
L 4122 3641 
Q 3803 3938 3442 4084 
Q 3081 4231 2675 4231 
Q 1875 4231 1450 3742 
Q 1025 3253 1025 2328 
Q 1025 1406 1450 917 
Q 1875 428 2675 428 
Q 3081 428 3442 575 
Q 3803 722 4122 1019 
L 4122 359 
Q 3791 134 3420 21 
Q 3050 -91 2638 -91 
Q 1578 -91 968 557 
Q 359 1206 359 2328 
Q 359 3453 968 4101 
Q 1578 4750 2638 4750 
Q 3056 4750 3426 4639 
Q 3797 4528 4122 4306 
z
" transform="scale(0.015625)"/>
      <path id="DejaVuSans-28" d="M 1984 4856 
Q 1566 4138 1362 3434 
Q 1159 2731 1159 2009 
Q 1159 1288 1364 580 
Q 1569 -128 1984 -844 
L 1484 -844 
Q 1016 -109 783 600 
Q 550 1309 550 2009 
Q 550 2706 781 3412 
Q 1013 4119 1484 4856 
L 1984 4856 
z
" transform="scale(0.015625)"/>
      <path id="DejaVuSans-35" d="M 691 4666 
L 3169 4666 
L 3169 4134 
L 1269 4134 
L 1269 2991 
Q 1406 3038 1543 3061 
Q 1681 3084 1819 3084 
Q 2600 3084 3056 2656 
Q 3513 2228 3513 1497 
Q 3513 744 3044 326 
Q 2575 -91 1722 -91 
Q 1428 -91 1123 -41 
Q 819 9 494 109 
L 494 744 
Q 775 591 1075 516 
Q 1375 441 1709 441 
Q 2250 441 2565 725 
Q 2881 1009 2881 1497 
Q 2881 1984 2565 2268 
Q 2250 2553 1709 2553 
Q 1456 2553 1204 2497 
Q 953 2441 691 2322 
L 691 4666 
z
" transform="scale(0.015625)"/>
      <path id="DejaVuSans-25" d="M 4653 2053 
Q 4381 2053 4226 1822 
Q 4072 1591 4072 1178 
Q 4072 772 4226 539 
Q 4381 306 4653 306 
Q 4919 306 5073 539 
Q 5228 772 5228 1178 
Q 5228 1588 5073 1820 
Q 4919 2053 4653 2053 
z
M 4653 2450 
Q 5147 2450 5437 2106 
Q 5728 1763 5728 1178 
Q 5728 594 5436 251 
Q 5144 -91 4653 -91 
Q 4153 -91 3862 251 
Q 3572 594 3572 1178 
Q 3572 1766 3864 2108 
Q 4156 2450 4653 2450 
z
M 1428 4353 
Q 1159 4353 1004 4120 
Q 850 3888 850 3481 
Q 850 3069 1003 2837 
Q 1156 2606 1428 2606 
Q 1700 2606 1854 2837 
Q 2009 3069 2009 3481 
Q 2009 3884 1853 4118 
Q 1697 4353 1428 4353 
z
M 4250 4750 
L 4750 4750 
L 1831 -91 
L 1331 -91 
L 4250 4750 
z
M 1428 4750 
Q 1922 4750 2215 4408 
Q 2509 4066 2509 3481 
Q 2509 2891 2217 2550 
Q 1925 2209 1428 2209 
Q 931 2209 642 2551 
Q 353 2894 353 3481 
Q 353 4063 643 4406 
Q 934 4750 1428 4750 
z
" transform="scale(0.015625)"/>
      <path id="DejaVuSans-49" d="M 628 4666 
L 1259 4666 
L 1259 0 
L 628 0 
L 628 4666 
z
" transform="scale(0.015625)"/>
      <path id="DejaVuSans-29" d="M 513 4856 
L 1013 4856 
Q 1481 4119 1714 3412 
Q 1947 2706 1947 2009 
Q 1947 1309 1714 600 
Q 1481 -109 1013 -844 
L 513 -844 
Q 928 -128 1133 580 
Q 1338 1288 1338 2009 
Q 1338 2731 1133 3434 
Q 928 4138 513 4856 
z
" transform="scale(0.015625)"/>
     </defs>
     <use xlink:href="#DejaVuSans-43"/>
     <use xlink:href="#DejaVuSans-6f" x="69.824219"/>
     <use xlink:href="#DejaVuSans-65" x="131.005859"/>
     <use xlink:href="#DejaVuSans-66" x="192.529297"/>
     <use xlink:href="#DejaVuSans-66" x="227.734375"/>
     <use xlink:href="#DejaVuSans-69" x="262.939453"/>
     <use xlink:href="#DejaVuSans-63" x="290.722656"/>
     <use xlink:href="#DejaVuSans-69" x="345.703125"/>
     <use xlink:href="#DejaVuSans-65" x="373.486328"/>
     <use xlink:href="#DejaVuSans-6e" x="435.009766"/>
     <use xlink:href="#DejaVuSans-74" x="498.388672"/>
     <use xlink:href="#DejaVuSans-20" x="537.597656"/>
     <use xlink:href="#DejaVuSans-45" x="569.384766"/>
     <use xlink:href="#DejaVuSans-73" x="632.568359"/>
     <use xlink:href="#DejaVuSans-74" x="684.667969"/>
     <use xlink:href="#DejaVuSans-69" x="723.876953"/>
     <use xlink:href="#DejaVuSans-6d" x="751.660156"/>
     <use xlink:href="#DejaVuSans-61" x="849.072266"/>
     <use xlink:href="#DejaVuSans-74" x="910.351562"/>
     <use xlink:href="#DejaVuSans-65" x="949.560547"/>
     <use xlink:href="#DejaVuSans-73" x="1011.083984"/>
     <use xlink:href="#DejaVuSans-20" x="1063.183594"/>
     <use xlink:href="#DejaVuSans-28" x="1094.970703"/>
     <use xlink:href="#DejaVuSans-39" x="1133.984375"/>
     <use xlink:href="#DejaVuSans-35" x="1197.607422"/>
     <use xlink:href="#DejaVuSans-25" x="1261.230469"/>
     <use xlink:href="#DejaVuSans-20" x="1356.25"/>
     <use xlink:href="#DejaVuSans-43" x="1388.037109"/>
     <use xlink:href="#DejaVuSans-49" x="1457.861328"/>
     <use xlink:href="#DejaVuSans-29" x="1487.353516"/>
    </g>
    <!-- Main Effects Only -->
    <g transform="translate(312.267187 27.875875)scale(0.11 -0.11)">
     <defs>
      <path id="DejaVuSans-4d" d="M 628 4666 
L 1569 4666 
L 2759 1491 
L 3956 4666 
L 4897 4666 
L 4897 0 
L 4281 0 
L 4281 4097 
L 3078 897 
L 2444 897 
L 1241 4097 
L 1241 0 
L 628 0 
L 628 4666 
z
" transform="scale(0.015625)"/>
      <path id="DejaVuSans-4f" d="M 2522 4238 
Q 1834 4238 1429 3725 
Q 1025 3213 1025 2328 
Q 1025 1447 1429 934 
Q 1834 422 2522 422 
Q 3209 422 3611 934 
Q 4013 1447 4013 2328 
Q 4013 3213 3611 3725 
Q 3209 4238 2522 4238 
z
M 2522 4750 
Q 3503 4750 4090 4092 
Q 4678 3434 4678 2328 
Q 4678 1225 4090 567 
Q 3503 -91 2522 -91 
Q 1538 -91 948 565 
Q 359 1222 359 2328 
Q 359 3434 948 4092 
Q 1538 4750 2522 4750 
z
" transform="scale(0.015625)"/>
      <path id="DejaVuSans-79" d="M 2059 -325 
Q 1816 -950 1584 -1140 
Q 1353 -1331 966 -1331 
L 506 -1331 
L 506 -850 
L 844 -850 
Q 1081 -850 1212 -737 
Q 1344 -625 1503 -206 
L 1606 56 
L 191 3500 
L 800 3500 
L 1894 763 
L 2988 3500 
L 3597 3500 
L 2059 -325 
z
" transform="scale(0.015625)"/>
     </defs>
     <use xlink:href="#DejaVuSans-4d"/>
     <use xlink:href="#DejaVuSans-61" x="86.279297"/>
     <use xlink:href="#DejaVuSans-69" x="147.558594"/>
     <use xlink:href="#DejaVuSans-6e" x="175.341797"/>
     <use xlink:href="#DejaVuSans-20" x="238.720703"/>
     <use xlink:href="#DejaVuSans-45" x="270.507812"/>
     <use xlink:href="#DejaVuSans-66" x="333.691406"/>
     <use xlink:href="#DejaVuSans-66" x="368.896484"/>
     <use xlink:href="#DejaVuSans-65" x="404.101562"/>
     <use xlink:href="#DejaVuSans-63" x="465.625"/>
     <use xlink:href="#DejaVuSans-74" x="520.605469"/>
     <use xlink:href="#DejaVuSans-73" x="559.814453"/>
     <use xlink:href="#DejaVuSans-20" x="611.914062"/>
     <use xlink:href="#DejaVuSans-4f" x="643.701172"/>
     <use xlink:href="#DejaVuSans-6e" x="722.412109"/>
     <use xlink:href="#DejaVuSans-6c" x="785.791016"/>
     <use xlink:href="#DejaVuSans-79" x="813.574219"/>
    </g>
   </g>
   <g id="PathCollection_1">
    <defs>
     <path id="m2b407491f6" d="M 0 3.162278 
L 0 -3.162278 
" style="stroke: #7ad151; stroke-width: 3"/>
    </defs>
    <g clip-path="url(#p6f276aed54)">
     <use xlink:href="#m2b407491f6" x="347.319694" y="190.755782" style="fill: #7ad151; stroke: #7ad151; stroke-width: 3"/>
    </g>
   </g>
   <g id="PathCollection_2">
    <g clip-path="url(#p6f276aed54)">
     <use xlink:href="#m2b407491f6" x="351.835628" y="133.474209" style="fill: #7ad151; stroke: #7ad151; stroke-width: 3"/>
    </g>
   </g>
   <g id="PathCollection_3">
    <g clip-path="url(#p6f276aed54)">
     <use xlink:href="#m2b407491f6" x="306.790792" y="76.192637" style="fill: #7ad151; stroke: #7ad151; stroke-width: 3"/>
    </g>
   </g>
   <g id="PathCollection_4">
    <defs>
     <path id="m2e4843e02a" d="M 0 3.162278 
L 0 -3.162278 
" style="stroke: #414487; stroke-width: 3"/>
    </defs>
    <g clip-path="url(#p6f276aed54)">
     <use xlink:href="#m2e4843e02a" x="368.435327" y="167.843153" style="fill: #414487; stroke: #414487; stroke-width: 3"/>
    </g>
   </g>
   <g id="PathCollection_5">
    <g clip-path="url(#p6f276aed54)">
     <use xlink:href="#m2e4843e02a" x="374.586127" y="110.56158" style="fill: #414487; stroke: #414487; stroke-width: 3"/>
    </g>
   </g>
   <g id="PathCollection_6">
    <g clip-path="url(#p6f276aed54)">
     <use xlink:href="#m2e4843e02a" x="315.676968" y="53.280008" style="fill: #414487; stroke: #414487; stroke-width: 3"/>
    </g>
   </g>
   <g id="legend_1">
    <g id="patch_5">
     <path d="M 564.934844 48.814469 
L 575.734844 48.814469 
L 575.734844 42.514469 
L 564.934844 42.514469 
z
" style="fill: #7ad151; opacity: 0.55; stroke: #7ad151; stroke-linejoin: miter"/>
    </g>
    <g id="text_23">
     <!-- Cognates -->
     <g transform="translate(582.934844 48.814469)scale(0.09 -0.09)">
      <use xlink:href="#DejaVuSans-43"/>
      <use xlink:href="#DejaVuSans-6f" x="69.824219"/>
      <use xlink:href="#DejaVuSans-67" x="131.005859"/>
      <use xlink:href="#DejaVuSans-6e" x="194.482422"/>
      <use xlink:href="#DejaVuSans-61" x="257.861328"/>
      <use xlink:href="#DejaVuSans-74" x="319.140625"/>
      <use xlink:href="#DejaVuSans-65" x="358.349609"/>
      <use xlink:href="#DejaVuSans-73" x="419.873047"/>
     </g>
    </g>
    <g id="patch_6">
     <path d="M 564.934844 62.024781 
L 575.734844 62.024781 
L 575.734844 55.724781 
L 564.934844 55.724781 
z
" style="fill: #414487; opacity: 0.55; stroke: #414487; stroke-linejoin: miter"/>
    </g>
    <g id="text_24">
     <!-- Speech -->
     <g transform="translate(582.934844 62.024781)scale(0.09 -0.09)">
      <defs>
       <path id="DejaVuSans-68" d="M 3513 2113 
L 3513 0 
L 2938 0 
L 2938 2094 
Q 2938 2591 2744 2837 
Q 2550 3084 2163 3084 
Q 1697 3084 1428 2787 
Q 1159 2491 1159 1978 
L 1159 0 
L 581 0 
L 581 4863 
L 1159 4863 
L 1159 2956 
Q 1366 3272 1645 3428 
Q 1925 3584 2291 3584 
Q 2894 3584 3203 3211 
Q 3513 2838 3513 2113 
z
" transform="scale(0.015625)"/>
      </defs>
      <use xlink:href="#DejaVuSans-53"/>
      <use xlink:href="#DejaVuSans-70" x="63.476562"/>
      <use xlink:href="#DejaVuSans-65" x="126.953125"/>
      <use xlink:href="#DejaVuSans-65" x="188.476562"/>
      <use xlink:href="#DejaVuSans-63" x="250"/>
      <use xlink:href="#DejaVuSans-68" x="304.980469"/>
     </g>
    </g>
   </g>
  </g>
 </g>
 <defs>
  <clipPath id="p6f276aed54">
   <rect x="87.023438" y="33.875875" width="546.49" height="174.852"/>
  </clipPath>
 </defs>
</svg>
