<?xml version="1.0" encoding="utf-8" standalone="no"?>
<!DOCTYPE svg PUBLIC "-//W3C//DTD SVG 1.1//EN"
  "http://www.w3.org/Graphics/SVG/1.1/DTD/svg11.dtd">
<svg xmlns:xlink="http://www.w3.org/1999/xlink" width="572.4pt" height="114.192pt" viewBox="0 0 572.4 114.192" xmlns="http://www.w3.org/2000/svg" version="1.1">
 <metadata>
  <rdf:RDF xmlns:dc="http://purl.org/dc/elements/1.1/" xmlns:cc="http://creativecommons.org/ns#" xmlns:rdf="http://www.w3.org/1999/02/22-rdf-syntax-ns#">
   <cc:Work>
    <dc:type rdf:resource="http://purl.org/dc/dcmitype/StillImage"/>
    <dc:date>2025-12-09T13:26:30.856002</dc:date>
    <dc:format>image/svg+xml</dc:format>
    <dc:creator>
     <cc:Agent>
      <dc:title>Matplotlib v3.5.3, https://matplotlib.org/</dc:title>
     </cc:Agent>
    </dc:creator>
   </cc:Work>
  </rdf:RDF>
 </metadata>
 <defs>
  <style type="text/css">*{stroke-linejoin: round; stroke-linecap: butt}</style>
 </defs>
 <g id="figure_1">
  <g id="patch_1">
   <path d="M 0 114.192 
L 572.4 114.192 
L 572.4 0 
L 0 0 
z
" style="fill: #ffffff"/>
  </g>
  <g id="axes_1">
   <g id="patch_2">
    <path d="M 93.3025 63.835202 
L 99.6575 63.835202 
L 99.6575 50.356798 
L 93.3025 50.356798 
z
" clip-path="url(#p30c6e166a7)"/>
   </g>
   <g id="patch_3">
    <path d="M 105.034808 63.845245 
L 111.389808 63.845245 
L 111.389808 50.346755 
L 105.034808 50.346755 
z
" clip-path="url(#p30c6e166a7)"/>
   </g>
   <g id="patch_4">
    <path d="M 116.767115 63.867059 
L 123.122115 63.867059 
L 123.122115 50.324941 
L 116.767115 50.324941 
z
" clip-path="url(#p30c6e166a7)"/>
   </g>
   <g id="patch_5">
    <path d="M 128.499423 63.895413 
L 134.854423 63.895413 
L 134.854423 50.296587 
L 128.499423 50.296587 
z
" clip-path="url(#p30c6e166a7)"/>
   </g>
   <g id="patch_6">
    <path d="M 140.231731 63.904797 
L 146.586731 63.904797 
L 146.586731 50.287203 
L 140.231731 50.287203 
z
" clip-path="url(#p30c6e166a7)"/>
   </g>
   <g id="patch_7">
    <path d="M 151.964038 63.867373 
L 158.319038 63.867373 
L 158.319038 50.324627 
L 151.964038 50.324627 
z
" clip-path="url(#p30c6e166a7)"/>
   </g>
   <g id="patch_8">
    <path d="M 163.696346 63.834131 
L 170.051346 63.834131 
L 170.051346 50.357869 
L 163.696346 50.357869 
z
" clip-path="url(#p30c6e166a7)"/>
   </g>
   <g id="patch_9">
    <path d="M 175.428654 64.047158 
L 181.783654 64.047158 
L 181.783654 50.144842 
L 175.428654 50.144842 
z
" clip-path="url(#p30c6e166a7)"/>
   </g>
   <g id="patch_10">
    <path d="M 187.160962 64.913746 
L 193.515962 64.913746 
L 193.515962 49.278254 
L 187.160962 49.278254 
z
" clip-path="url(#p30c6e166a7)"/>
   </g>
   <g id="patch_11">
    <path d="M 198.893269 66.640153 
L 205.248269 66.640153 
L 205.248269 47.551847 
L 198.893269 47.551847 
z
" clip-path="url(#p30c6e166a7)"/>
   </g>
   <g id="patch_12">
    <path d="M 210.625577 68.646444 
L 216.980577 68.646444 
L 216.980577 45.545556 
L 210.625577 45.545556 
z
" clip-path="url(#p30c6e166a7)"/>
   </g>
   <g id="patch_13">
    <path d="M 222.357885 69.459846 
L 228.712885 69.459846 
L 228.712885 44.732154 
L 222.357885 44.732154 
z
" clip-path="url(#p30c6e166a7)"/>
   </g>
   <g id="patch_14">
    <path d="M 234.090192 67.851918 
L 240.445192 67.851918 
L 240.445192 46.340082 
L 234.090192 46.340082 
z
" clip-path="url(#p30c6e166a7)"/>
   </g>
   <g id="patch_15">
    <path d="M 245.8225 64.80659 
L 252.1775 64.80659 
L 252.1775 49.38541 
L 245.8225 49.38541 
z
" clip-path="url(#p30c6e166a7)"/>
   </g>
   <g id="patch_16">
    <path d="M 257.554808 64.209695 
L 263.909808 64.209695 
L 263.909808 49.982305 
L 257.554808 49.982305 
z
" clip-path="url(#p30c6e166a7)"/>
   </g>
   <g id="patch_17">
    <path d="M 269.287115 70.2664 
L 275.642115 70.2664 
L 275.642115 43.9256 
L 269.287115 43.9256 
z
" clip-path="url(#p30c6e166a7)"/>
   </g>
   <g id="patch_18">
    <path d="M 281.019423 82.830627 
L 287.374423 82.830627 
L 287.374423 31.361373 
L 281.019423 31.361373 
z
" clip-path="url(#p30c6e166a7)"/>
   </g>
   <g id="patch_19">
    <path d="M 292.751731 95.32933 
L 299.106731 95.32933 
L 299.106731 18.86267 
L 292.751731 18.86267 
z
" clip-path="url(#p30c6e166a7)"/>
   </g>
   <g id="patch_20">
    <path d="M 304.484038 98.913171 
L 310.839038 98.913171 
L 310.839038 15.278829 
L 304.484038 15.278829 
z
" clip-path="url(#p30c6e166a7)"/>
   </g>
   <g id="patch_21">
    <path d="M 316.216346 90.246765 
L 322.571346 90.246765 
L 322.571346 23.945235 
L 316.216346 23.945235 
z
" clip-path="url(#p30c6e166a7)"/>
   </g>
   <g id="patch_22">
    <path d="M 327.948654 75.370371 
L 334.303654 75.370371 
L 334.303654 38.821629 
L 327.948654 38.821629 
z
" clip-path="url(#p30c6e166a7)"/>
   </g>
   <g id="patch_23">
    <path d="M 339.680962 65.010094 
L 346.035962 65.010094 
L 346.035962 49.181906 
L 339.680962 49.181906 
z
" clip-path="url(#p30c6e166a7)"/>
   </g>
   <g id="patch_24">
    <path d="M 351.413269 65.429615 
L 357.768269 65.429615 
L 357.768269 48.762385 
L 351.413269 48.762385 
z
" clip-path="url(#p30c6e166a7)"/>
   </g>
   <g id="patch_25">
    <path d="M 363.145577 73.691998 
L 369.500577 73.691998 
L 369.500577 40.500002 
L 363.145577 40.500002 
z
" clip-path="url(#p30c6e166a7)"/>
   </g>
   <g id="patch_26">
    <path d="M 374.877885 81.439062 
L 381.232885 81.439062 
L 381.232885 32.752938 
L 374.877885 32.752938 
z
" clip-path="url(#p30c6e166a7)"/>
   </g>
   <g id="patch_27">
    <path d="M 386.610192 82.588817 
L 392.965192 82.588817 
L 392.965192 31.603183 
L 386.610192 31.603183 
z
" clip-path="url(#p30c6e166a7)"/>
   </g>
   <g id="patch_28">
    <path d="M 398.3425 77.406809 
L 404.6975 77.406809 
L 404.6975 36.785191 
L 398.3425 36.785191 
z
" clip-path="url(#p30c6e166a7)"/>
   </g>
   <g id="patch_29">
    <path d="M 410.074808 70.381322 
L 416.429808 70.381322 
L 416.429808 43.810678 
L 410.074808 43.810678 
z
" clip-path="url(#p30c6e166a7)"/>
   </g>
   <g id="patch_30">
    <path d="M 421.807115 65.539377 
L 428.162115 65.539377 
L 428.162115 48.652623 
L 421.807115 48.652623 
z
" clip-path="url(#p30c6e166a7)"/>
   </g>
   <g id="patch_31">
    <path d="M 433.539423 63.881105 
L 439.894423 63.881105 
L 439.894423 50.310895 
L 433.539423 50.310895 
z
" clip-path="url(#p30c6e166a7)"/>
   </g>
   <g id="patch_32">
    <path d="M 445.271731 64.104642 
L 451.626731 64.104642 
L 451.626731 50.087358 
L 445.271731 50.087358 
z
" clip-path="url(#p30c6e166a7)"/>
   </g>
   <g id="patch_33">
    <path d="M 457.004038 64.614661 
L 463.359038 64.614661 
L 463.359038 49.577339 
L 457.004038 49.577339 
z
" clip-path="url(#p30c6e166a7)"/>
   </g>
   <g id="patch_34">
    <path d="M 468.736346 64.694754 
L 475.091346 64.694754 
L 475.091346 49.497246 
L 468.736346 49.497246 
z
" clip-path="url(#p30c6e166a7)"/>
   </g>
   <g id="patch_35">
    <path d="M 480.468654 64.425237 
L 486.823654 64.425237 
L 486.823654 49.766763 
L 480.468654 49.766763 
z
" clip-path="url(#p30c6e166a7)"/>
   </g>
   <g id="patch_36">
    <path d="M 492.200962 64.110774 
L 498.555962 64.110774 
L 498.555962 50.081226 
L 492.200962 50.081226 
z
" clip-path="url(#p30c6e166a7)"/>
   </g>
   <g id="patch_37">
    <path d="M 503.933269 63.917544 
L 510.288269 63.917544 
L 510.288269 50.274456 
L 503.933269 50.274456 
z
" clip-path="url(#p30c6e166a7)"/>
   </g>
   <g id="patch_38">
    <path d="M 515.665577 63.844813 
L 522.020577 63.844813 
L 522.020577 50.347187 
L 515.665577 50.347187 
z
" clip-path="url(#p30c6e166a7)"/>
   </g>
   <g id="patch_39">
    <path d="M 527.397885 63.831974 
L 533.752885 63.831974 
L 533.752885 50.360026 
L 527.397885 50.360026 
z
" clip-path="url(#p30c6e166a7)"/>
   </g>
   <g id="patch_40">
    <path d="M 539.130192 63.834112 
L 545.485192 63.834112 
L 545.485192 50.357888 
L 539.130192 50.357888 
z
" clip-path="url(#p30c6e166a7)"/>
   </g>
   <g id="patch_41">
    <path d="M 550.8625 63.835202 
L 557.2175 63.835202 
L 557.2175 50.356798 
L 550.8625 50.356798 
z
" clip-path="url(#p30c6e166a7)"/>
   </g>
  </g>
  <g id="axes_2">
   <g id="patch_42">
    <path d="M 45.31 81.2016 
C 51.70288 81.2016 57.834785 78.661682 62.355233 74.141233 
C 66.875682 69.620785 69.4156 63.48888 69.4156 57.096 
C 69.4156 50.70312 66.875682 44.571215 62.355233 40.050767 
C 57.834785 35.530318 51.70288 32.9904 45.31 32.9904 
C 38.91712 32.9904 32.785215 35.530318 28.264767 40.050767 
C 23.744318 44.571215 21.2044 50.70312 21.2044 57.096 
C 21.2044 63.48888 23.744318 69.620785 28.264767 74.141233 
C 32.785215 78.661682 38.91712 81.2016 45.31 81.2016 
z
" clip-path="url(#p1eb6e34301)" style="stroke: #000000; stroke-linejoin: miter"/>
   </g>
   <g id="patch_43">
    <path d="M 41.2924 66.1356 
L 41.2924 48.0564 
L 57.865 57.096 
z
" clip-path="url(#p1eb6e34301)" style="fill: #ffffff; stroke: #ffffff"/>
   </g>
  </g>
 </g>
 <defs>
  <clipPath id="p30c6e166a7">
   <rect x="7.2" y="7.2" width="558" height="99.792"/>
  </clipPath>
  <clipPath id="p1eb6e34301">
   <rect x="20.2" y="31.986" width="50.22" height="50.22"/>
  </clipPath>
 </defs>
</svg>
